<?xml version="1.0" standalone="no"?>
<!DOCTYPE svg PUBLIC "-//W3C//DTD SVG 1.1//EN" "http://www.w3.org/Graphics/SVG/1.1/DTD/svg11.dtd" >
<svg xmlns="http://www.w3.org/2000/svg">
<metadata></metadata>
<defs>
<font id="asapbold" horiz-adv-x="655" >
<font-face units-per-em="2048" ascent="1638" descent="-410" />
<missing-glyph horiz-adv-x="491" />
<glyph unicode="&#xfb01;" horiz-adv-x="1153" d="M35 934v35q0 54 14.5 78t46.5 24h37v154q0 331 299 331q205 0 205 -100q0 -26 -19 -86.5t-45 -60.5q-6 0 -29 4t-34 4q-39 0 -56.5 -21t-17.5 -67v-158h103q32 0 46.5 -24t14.5 -78v-35q0 -54 -14.5 -78.5t-46.5 -24.5h-103v-770q0 -65 -123 -65h-57q-123 0 -123 65v770 h-37q-32 0 -46.5 24.5t-14.5 78.5zM731 61v949q0 65 123 65h57q123 0 123 -65v-949q0 -65 -123 -65h-57q-123 0 -123 65zM731 1313v166q0 65 123 65h57q123 0 123 -65v-166q0 -66 -123 -66h-57q-123 0 -123 66z" />
<glyph unicode="&#xfb02;" horiz-adv-x="1210" d="M35 934v35q0 54 14.5 78t46.5 24h37v154q0 331 299 331q205 0 205 -100q0 -26 -19 -86.5t-45 -60.5q-6 0 -29 4t-34 4q-39 0 -56.5 -21t-17.5 -67v-158h103q32 0 46.5 -24t14.5 -78v-35q0 -54 -14.5 -78.5t-46.5 -24.5h-103v-770q0 -65 -123 -65h-57q-123 0 -123 65v770 h-37q-32 0 -46.5 24.5t-14.5 78.5zM731 315v1164q0 65 123 65h57q123 0 123 -65v-1168q0 -46 17.5 -67t56.5 -21q10 0 30 4t25 4q26 0 45 -60.5t19 -86.5q0 -100 -197 -100q-299 0 -299 331z" />
<glyph horiz-adv-x="0" />
<glyph horiz-adv-x="682" />
<glyph unicode="&#xd;" horiz-adv-x="491" />
<glyph unicode=" "  horiz-adv-x="491" />
<glyph unicode="&#x09;" horiz-adv-x="491" />
<glyph unicode="&#xa0;" horiz-adv-x="491" />
<glyph unicode="!" horiz-adv-x="602" d="M152 61v189q0 65 122 65h66q123 0 123 -65v-189q0 -65 -123 -65h-66q-122 0 -122 65zM193 520v852q0 66 122 66h88q123 0 123 -58q-17 -143 -50.5 -429.5t-51.5 -430.5q-5 -35 -25.5 -50t-79.5 -15h-22q-60 0 -82 15.5t-22 49.5z" />
<glyph unicode="&#x22;" horiz-adv-x="653" d="M39 1362v10q0 66 123 66h20q123 0 123 -66q0 -7 -8 -69t-19.5 -151.5t-17.5 -139.5q-5 -32 -21.5 -47t-48.5 -15h-36q-32 0 -48.5 15t-21.5 47zM348 1362v10q0 66 123 66h21q122 0 122 -66q0 -7 -8 -69t-19.5 -151.5t-17.5 -139.5q-5 -32 -21 -47t-48 -15h-37 q-32 0 -48.5 15t-21.5 47z" />
<glyph unicode="#" horiz-adv-x="1093" d="M16 477v21q0 54 15 78t47 24h129l43 225h-98q-32 0 -47 24.5t-15 78.5v20q0 54 15 78.5t47 24.5h139l53 290q12 64 115 64h26q93 0 93 -45l-56 -309h193l53 290q12 64 115 64h26q92 0 92 -45l-55 -309h68q32 0 46.5 -24.5t14.5 -78.5v-20q0 -54 -14.5 -78.5t-46.5 -24.5 h-109l-43 -225h86q32 0 47 -24t15 -78v-21q0 -54 -15 -78t-47 -24h-127l-59 -316q-12 -63 -113 -63h-26q-50 0 -72.5 10.5t-22.5 36.5q0 3 1 10.5t5.5 29.5t10.5 53t18.5 95.5t26.5 143.5h-193l-59 -316q-12 -63 -113 -63h-26q-50 0 -72.5 10.5t-22.5 36.5q0 3 1 10.5 t5.5 29.5t10.5 53t18.5 95.5t26.5 143.5h-88q-32 0 -47 24t-15 78zM438 600h193l43 225h-193z" />
<glyph unicode="$" horiz-adv-x="1015" d="M39 164q0 47 47.5 114.5t79.5 67.5q12 0 57 -23.5t114 -47t140 -23.5v338q-153 57 -218 97q-174 107 -189 302q-2 20 -2 41q0 97 33.5 174t91.5 126.5t129.5 78t154.5 37.5v65q0 62 55 62q62 0 62 -62v-63q141 -6 234.5 -48.5t93.5 -92.5q0 -45 -39 -112t-74 -67 q-9 0 -36 12t-75 25t-104 15v-312q148 -64 207 -104q168 -110 181 -292q1 -17 1 -34q0 -109 -32 -194t-88.5 -137t-123 -81t-145.5 -38v-92q0 -62 -55 -62q-62 0 -62 62v90q-197 6 -317.5 63t-120.5 115zM371 1059q0 -78 106 -137v245q-106 -27 -106 -108zM594 274 q88 36 88 127q0 83 -88 134v-261z" />
<glyph unicode="%" horiz-adv-x="1566" d="M92 1106q0 82 18.5 145t48 100t71 60t82 31t87.5 8q38 0 72.5 -6t70.5 -19.5t65 -39.5t52 -63t35.5 -92t12.5 -124t-12.5 -124t-35.5 -92t-52 -63t-65 -39.5t-70.5 -19.5t-72.5 -6q-47 0 -87.5 8t-82 31t-71 60t-48 100t-18.5 145zM301 1106q0 -73 22 -124.5t76 -51.5 q97 0 97 176q0 168 -97 168q-98 0 -98 -168zM313 23q0 8 11 30l731 1327q31 58 90 58h90q43 0 43 -29q0 -9 -10 -29l-731 -1327q-31 -57 -91 -57h-90q-21 0 -32 8t-11 19zM885 328q0 82 18.5 145t48 100t71 60t82 31t87.5 8t87.5 -8t82 -31t71 -60t48 -100t18.5 -145 t-18.5 -145t-48 -100t-71 -60t-82 -31t-87.5 -8t-87.5 8t-82 31t-71 60t-48 100t-18.5 145zM1094 328q0 -73 22 -124.5t76 -51.5q96 0 96 176q0 168 -96 168q-98 0 -98 -168z" />
<glyph unicode="&#x26;" horiz-adv-x="1277" d="M47 418q0 130 60 225.5t178 140.5v9q-89 37 -140 115.5t-51 183.5q0 164 114 261t306 97q44 0 76.5 -2.5t70 -10.5t58 -26.5t20.5 -46.5q0 -71 -22 -119.5t-49 -48.5l-36 7q-37 7 -65 7q-81 0 -123.5 -45.5t-42.5 -122.5t56 -123.5t155 -46.5h193l26 195q9 66 111 66h64 q102 0 102 -66v-195h100q32 0 47 -24t15 -78v-35q0 -54 -15 -78t-47 -24h-100v-322q0 -46 17.5 -67t56.5 -21q10 0 30 4t25 4q26 0 44.5 -60t18.5 -87q0 -100 -196 -100q-147 0 -223 82q-89 -44 -171 -63t-200 -19q-207 0 -335 116.5t-128 317.5zM354 422q0 -94 55.5 -146.5 t147.5 -52.5q120 0 248 56v354h-211q-126 0 -183 -53.5t-57 -157.5z" />
<glyph unicode="'" horiz-adv-x="374" d="M61 1362v10q0 66 123 66h21q123 0 123 -66q0 -7 -8 -69t-19.5 -151.5t-17.5 -139.5q-5 -32 -21.5 -47t-48.5 -15h-37q-32 0 -48.5 15t-21.5 47z" />
<glyph unicode="(" horiz-adv-x="616" d="M104 588q0 266 79 517t229 466q23 33 55 33q34 0 75.5 -31t41.5 -64q0 -22 -11 -41q-123 -230 -176 -438t-53 -442q0 -233 53.5 -441.5t175.5 -437.5q11 -19 11 -41q0 -33 -41.5 -63.5t-75.5 -30.5q-32 0 -55 33q-150 215 -229 465t-79 516z" />
<glyph unicode=")" horiz-adv-x="616" d="M27 -332q0 24 10 41q122 229 175.5 437.5t53.5 441.5q0 234 -53 442t-176 438q-10 18 -10 41q0 33 41.5 64t74.5 31t56 -33q150 -214 228.5 -465.5t78.5 -517.5t-78.5 -516t-228.5 -465q-23 -33 -56 -33q-34 0 -75 30.5t-41 63.5z" />
<glyph unicode="*" horiz-adv-x="763" d="M68 1200q0 27 14 51.5t43 24.5q9 0 29 -4l157 -51v168q0 32 15 46.5t47 14.5t46.5 -14.5t14.5 -46.5v-168l154 51q20 4 26 4q22 0 41 -21t19 -55q0 -18 -10.5 -28.5t-34.5 -18.5l-156 -49l117 -162q16 -19 16 -41q0 -19 -23.5 -39t-43.5 -20q-26 0 -47 30l-121 170 l-121 -170q-21 -30 -47 -30q-22 0 -46 20t-24 39t19 41l114 162l-153 49q-45 15 -45 47z" />
<glyph unicode="+" horiz-adv-x="1146" d="M84 475v14q0 54 14.5 78.5t46.5 24.5h310v315q0 32 24 47t78 15h29q54 0 78 -15t24 -47v-315h313q32 0 47 -24.5t15 -78.5v-14q0 -54 -15 -78t-47 -24h-313v-312q0 -32 -24 -46.5t-78 -14.5h-29q-54 0 -78 14.5t-24 46.5v312h-310q-32 0 -46.5 24t-14.5 78z" />
<glyph unicode="," horiz-adv-x="405" d="M-18 -211q0 19 18 68q22 53 32.5 83t25 111.5t14.5 173.5q0 90 123 90h38q62 0 92.5 -24.5t30.5 -65.5q0 -81 -31.5 -171t-76 -156.5t-92.5 -110t-82 -43.5t-63 11.5t-29 33.5z" />
<glyph unicode="-" d="M57 537v14q0 54 15 78t47 24h418q32 0 46.5 -24t14.5 -78v-14q0 -54 -14.5 -78.5t-46.5 -24.5h-418q-32 0 -47 24.5t-15 78.5z" />
<glyph unicode="." horiz-adv-x="405" d="M45 61v189q0 65 123 65h65q123 0 123 -65v-189q0 -65 -123 -65h-65q-123 0 -123 65z" />
<glyph unicode="/" horiz-adv-x="757" d="M-61 -129q0 5 8 29l596 1476q25 62 125 62h49q86 0 86 -33q0 -11 -6 -29l-596 -1476q-25 -62 -125 -62h-49q-88 0 -88 33z" />
<glyph unicode="0" horiz-adv-x="1095" d="M61 717q0 345 129 539t357 194t356.5 -194t128.5 -539t-128.5 -539t-356.5 -194t-357 194t-129 539zM369 717q0 -243 45.5 -368.5t132.5 -125.5t132.5 125.5t45.5 368.5t-45.5 368t-132.5 125t-132.5 -125t-45.5 -368z" />
<glyph unicode="1" horiz-adv-x="1095" d="M76 1290q0 49 53 58l510 94q26 0 55 -15.5t29 -33.5v-1153h219q32 0 47 -24.5t15 -78.5v-35q0 -54 -15 -78t-47 -24h-795q-32 0 -46.5 24t-14.5 78v35q0 54 14.5 78.5t46.5 24.5h273v919l-279 -41q-35 0 -50 56t-15 116z" />
<glyph unicode="2" horiz-adv-x="1095" d="M68 180q0 22 6 31l518 635q78 95 78 196q0 80 -53 123t-138 43q-57 0 -108.5 -22t-84.5 -44t-46 -22q-44 0 -80.5 49t-36.5 93q0 58 62.5 102t153.5 65t191 21q212 0 329.5 -110.5t117.5 -290.5q0 -182 -125 -334l-385 -475h473q32 0 46.5 -24.5t14.5 -78.5v-35 q0 -54 -14.5 -78t-46.5 -24h-815q-21 0 -39 64.5t-18 115.5z" />
<glyph unicode="3" horiz-adv-x="1095" d="M74 152q0 35 34 95t66 60q12 0 52.5 -21t106 -42t138.5 -21q92 0 147.5 52.5t55.5 146.5q0 104 -57 156.5t-183 52.5h-57q-32 0 -47 24t-15 78v37q0 54 15 78t47 24h39q99 0 155 46.5t56 123.5t-42.5 121.5t-123.5 44.5q-68 0 -120 -16t-81 -31.5t-41 -15.5 q-30 0 -66 56.5t-36 98.5q0 72 116 111t281 39q192 0 306 -97t114 -261q0 -105 -51 -183.5t-140 -115.5v-9q118 -45 178 -140.5t60 -225.5q0 -201 -128 -317.5t-335 -116.5q-64 0 -135.5 9t-143.5 27t-118.5 52.5t-46.5 79.5z" />
<glyph unicode="4" horiz-adv-x="1095" d="M23 481q0 15 4 23l608 895q17 24 45.5 31.5t79.5 7.5h55q123 0 123 -66v-842h78q32 0 46.5 -24t14.5 -78v-35q0 -54 -14.5 -78t-46.5 -24h-78v-230q0 -65 -123 -65h-57q-123 0 -123 65v230h-537q-24 0 -49.5 71.5t-25.5 118.5zM328 530h307v469l-8 2z" />
<glyph unicode="5" horiz-adv-x="1095" d="M78 131q0 33 39 97.5t71 64.5q6 0 45 -17.5t105.5 -35t138.5 -17.5q101 0 160 56t59 155q0 112 -60 170t-196 58h-223q-43 0 -59.5 18.5t-16.5 62.5l39 609q3 43 22.5 62.5t63.5 19.5h604q32 0 47 -24.5t15 -78.5v-55q0 -43 -15 -62.5t-47 -19.5h-413l-21 -293h53 q121 0 211.5 -22.5t161 -74.5t106.5 -142.5t36 -219.5q0 -100 -31 -180t-82 -131t-120.5 -85t-141.5 -48t-150 -14q-172 0 -286.5 42.5t-114.5 104.5z" />
<glyph unicode="6" horiz-adv-x="1095" d="M68 518q0 161 39 298.5t99.5 229t138 165.5t151 115.5t141.5 69t106.5 37t49.5 9.5q32 0 57 -35t35 -72.5t10 -62.5q0 -22 -5 -30.5t-22 -12.5q-155 -46 -275 -151.5t-169 -252.5q97 52 205 52q49 0 100.5 -13t106.5 -45t98 -80t70.5 -125t27.5 -172q0 -96 -28 -174.5 t-74.5 -130.5t-109.5 -87t-130 -50.5t-139 -15.5t-139 17t-130.5 57.5t-110 100.5t-75 152.5t-28.5 206.5zM377 494q0 -143 48.5 -207t127.5 -64q73 0 123.5 59.5t50.5 151.5q0 95 -49 149t-137 54q-76 0 -162 -49q-2 -31 -2 -94z" />
<glyph unicode="7" horiz-adv-x="1095" d="M78 1296v35q0 54 14.5 78.5t46.5 24.5h811q17 0 39.5 -68.5t22.5 -116.5q0 -14 -4 -26l-539 -1186q-17 -41 -119 -41h-76q-120 0 -120 39q0 15 12 39l508 1120h-535q-32 0 -46.5 24t-14.5 78z" />
<glyph unicode="8" horiz-adv-x="1095" d="M59 412q0 138 58 229.5t149 126.5q-151 101 -151 295q0 77 28 145.5t82 123t141.5 86.5t198.5 32q193 0 308.5 -103t115.5 -253q0 -120 -46 -190t-132 -116q225 -101 225 -395q0 -59 -16 -115t-53 -110t-91 -94.5t-137 -65t-184 -24.5q-127 0 -224.5 34.5t-155.5 95 t-87 135.5t-29 163zM365 430q0 -94 49 -150.5t137 -56.5q83 0 130.5 57.5t47.5 129.5q0 47 -14.5 84.5t-34.5 61.5t-58 47t-66 34.5t-79 30.5q-112 -82 -112 -238zM414 1073q0 -72 43 -113t127 -75q110 73 110 188q0 62 -40.5 99.5t-98.5 37.5q-59 0 -100 -36.5t-41 -100.5z " />
<glyph unicode="9" horiz-adv-x="1095" d="M59 989q0 96 28 174.5t75 130.5t110 87.5t130 51t139 15.5t139 -17.5t130.5 -57.5t110 -100.5t75 -153t28.5 -206.5q0 -161 -39 -298t-99.5 -229t-138 -165.5t-151 -115t-141.5 -69t-106.5 -37t-49.5 -9.5q-32 0 -57 35t-35 72.5t-10 62.5q0 22 4.5 30.5t21.5 12.5 q156 46 276 151t169 252q-95 -51 -205 -51q-49 0 -100.5 13t-107 45t-98.5 79.5t-70.5 124.5t-27.5 172zM365 997q0 -95 48.5 -148.5t137.5 -53.5q76 0 162 49q2 31 2 94q0 143 -48.5 206.5t-127.5 63.5q-73 0 -123.5 -59.5t-50.5 -151.5z" />
<glyph unicode=":" horiz-adv-x="405" d="M45 61v189q0 65 123 65h65q123 0 123 -65v-189q0 -65 -123 -65h-65q-123 0 -123 65zM45 821v189q0 65 123 65h65q123 0 123 -65v-189q0 -65 -123 -65h-65q-123 0 -123 65z" />
<glyph unicode=";" horiz-adv-x="405" d="M-18 -211q0 19 18 68q22 53 32.5 83t25 111.5t14.5 173.5q0 90 123 90h38q62 0 92.5 -24.5t30.5 -65.5q0 -81 -31.5 -171t-76 -156.5t-92.5 -110t-82 -43.5t-63 11.5t-29 33.5zM45 821v189q0 65 123 65h65q123 0 123 -65v-189q0 -65 -123 -65h-65q-123 0 -123 65z" />
<glyph unicode="&#x3c;" horiz-adv-x="1146" d="M78 483v39q0 61 57 86l858 367q18 6 31 6q31 0 31 -84v-33q0 -100 -62 -125l-598 -237l600 -238q62 -25 62 -125v-33q0 -86 -31 -86q-13 0 -31 9l-860 368q-57 22 -57 86z" />
<glyph unicode="=" horiz-adv-x="1146" d="M84 279v14q0 54 14.5 78t46.5 24h856q32 0 47 -24t15 -78v-14q0 -54 -15 -78.5t-47 -24.5h-856q-32 0 -46.5 24.5t-14.5 78.5zM84 649v15q0 54 14.5 78t46.5 24h856q32 0 47 -24t15 -78v-15q0 -54 -15 -78t-47 -24h-856q-32 0 -46.5 24t-14.5 78z" />
<glyph unicode="&#x3e;" horiz-adv-x="1146" d="M78 106v33q0 101 61 125l600 238l-598 237q-61 24 -61 125v33q0 84 31 84q12 0 30 -6l858 -367q58 -25 58 -86v-39q0 -34 -13.5 -54t-44.5 -32l-860 -368q-18 -9 -30 -9q-31 0 -31 86z" />
<glyph unicode="?" horiz-adv-x="911" d="M66 1284q0 43 37 76.5t96 52t123.5 28t128.5 9.5q205 0 324.5 -98t119.5 -267q0 -64 -19 -119.5t-50 -97t-69 -78.5t-77.5 -70t-73.5 -64t-59.5 -69t-32.5 -77q-9 -32 -32.5 -43.5t-75.5 -11.5h-48q-54 0 -77 13.5t-23 45.5q0 81 37 153.5t102 149.5q20 23 62 69.5t61 69 t37 54t18 55.5q0 115 -151 115q-52 0 -102.5 -16t-83.5 -32t-43 -16q-39 0 -84 65.5t-45 102.5zM225 61v189q0 65 123 65h66q123 0 123 -65v-189q0 -65 -123 -65h-66q-123 0 -123 65z" />
<glyph unicode="@" horiz-adv-x="1994" d="M172 492q0 199 71.5 376.5t194.5 305t294 202t362 74.5q309 0 495.5 -182.5t186.5 -483.5q0 -183 -63 -335.5t-173 -241t-242 -88.5q-91 0 -151.5 38.5t-81.5 94.5q-35 -60 -96 -96.5t-135 -36.5q-127 0 -202 96t-75 274q0 246 105.5 398.5t273.5 152.5q65 0 119.5 -28.5 t89.5 -63.5q11 46 31.5 64t74.5 18h25q96 0 96 -53q0 -2 -31.5 -297.5t-31.5 -317.5q0 -73 71 -73q70 0 131.5 67.5t97.5 181.5t36 246q0 250 -151.5 402.5t-399.5 152.5q-218 0 -399.5 -112t-286.5 -306.5t-105 -428.5q0 -283 149 -458t388 -175q68 0 126 9t88.5 20.5 t58 20.5t42.5 9q29 0 29 -68q0 -37 -67.5 -61.5t-140 -32.5t-136.5 -8q-196 0 -348.5 93.5t-236 262.5t-83.5 388zM813 506q0 -180 117 -180q68 0 133 98q16 246 43 369q-50 47 -111 47q-87 0 -134.5 -85.5t-47.5 -248.5z" />
<glyph unicode="A" horiz-adv-x="1255" d="M0 41q0 9 8 37l451 1317q16 43 116 43h107q101 0 117 -43l450 -1317q6 -21 6 -37q0 -45 -102 -45h-90q-102 0 -115 43l-82 250h-483l-82 -250q-14 -43 -94 -43h-82q-125 0 -125 45zM471 559h307l-116 365q-15 48 -31 131h-8q-18 -95 -31 -131z" />
<glyph unicode="B" horiz-adv-x="1214" d="M141 82v1270q0 43 19.5 62.5t62.5 19.5h406q249 0 366 -96.5t117 -266.5q0 -101 -63 -186t-158 -125l2 -8q122 -24 199 -120t77 -216q0 -201 -128 -308.5t-384 -107.5h-434q-43 0 -62.5 19.5t-19.5 62.5zM457 268h200q90 0 139.5 43.5t49.5 122.5t-57 119.5t-164 40.5 h-168v-326zM457 862h141q89 0 139.5 43.5t50.5 110.5q0 151 -186 151h-145v-305z" />
<glyph unicode="C" horiz-adv-x="1267" d="M92 721q0 729 684 729q93 0 190 -17t167.5 -51t70.5 -75q0 -45 -48 -119t-85 -74q-6 0 -41.5 16.5t-104.5 33t-155 16.5q-180 0 -267 -114.5t-87 -346.5q0 -467 350 -467q67 0 130 13t100 28t67 28t39 13q30 0 59.5 -38t45.5 -79t16 -61q0 -44 -47.5 -78.5t-120.5 -54 t-148 -29.5t-141 -10q-345 0 -509.5 179t-164.5 558z" />
<glyph unicode="D" horiz-adv-x="1423" d="M141 82v1270q0 43 19.5 62.5t62.5 19.5h459q317 0 486 -185t169 -532t-169 -532t-486 -185h-459q-43 0 -62.5 19.5t-19.5 62.5zM459 268h223q164 0 248 115t84 334t-84 333.5t-248 114.5h-223v-897z" />
<glyph unicode="E" horiz-adv-x="1118" d="M141 82v1270q0 43 19.5 62.5t62.5 19.5h750q32 0 46.5 -24.5t14.5 -78.5v-63q0 -54 -14.5 -78.5t-46.5 -24.5h-516v-297h461q32 0 46.5 -24t14.5 -78v-64q0 -54 -14.5 -78t-46.5 -24h-461v-332h518q32 0 46.5 -24t14.5 -78v-64q0 -54 -14.5 -78t-46.5 -24h-752 q-43 0 -62.5 19.5t-19.5 62.5z" />
<glyph unicode="F" horiz-adv-x="1030" d="M141 61v1291q0 43 19.5 62.5t62.5 19.5h684q32 0 47 -24.5t15 -78.5v-63q0 -54 -15 -78.5t-47 -24.5h-450v-299h436q32 0 46.5 -24t14.5 -78v-64q0 -54 -14.5 -78t-46.5 -24h-436v-537q0 -65 -123 -65h-70q-123 0 -123 65z" />
<glyph unicode="G" horiz-adv-x="1376" d="M92 721q0 729 684 729q93 0 192.5 -17t172.5 -51t73 -75q0 -45 -48 -119t-85 -74q-6 0 -44 16.5t-109.5 33t-157.5 16.5q-180 0 -267 -114.5t-87 -346.5q0 -467 350 -467q83 0 160 14v260h-181q-32 0 -46.5 24.5t-14.5 78.5v65q0 54 14.5 78.5t46.5 24.5h416 q43 0 62.5 -19.5t19.5 -62.5v-570q0 -49 -52 -84t-134.5 -50t-152.5 -21t-138 -6q-345 0 -509.5 179t-164.5 558z" />
<glyph unicode="H" horiz-adv-x="1501" d="M172 61v1311q0 66 123 66h72q122 0 122 -66v-506h553v506q0 66 123 66h72q123 0 123 -66v-1311q0 -65 -123 -65h-72q-123 0 -123 65v535h-553v-535q0 -65 -122 -65h-72q-123 0 -123 65z" />
<glyph unicode="I" horiz-adv-x="577" d="M129 61v1311q0 68 123 68h72q122 0 122 -68v-1311q0 -67 -122 -67h-72q-123 0 -123 67z" />
<glyph unicode="J" horiz-adv-x="823" d="M0 78q0 25 7 64.5t27.5 81t49.5 44.5q4 0 40 -8t75 -8q92 0 132 50t40 163v907q0 68 123 68h71q123 0 123 -68v-958q0 -203 -106.5 -316.5t-327.5 -113.5q-29 0 -62 2.5t-81.5 11t-79.5 29t-31 51.5z" />
<glyph unicode="K" horiz-adv-x="1179" d="M141 61v1311q0 66 123 66h72q123 0 123 -66v-549l8 -2l356 578q23 39 123 39h96q115 0 115 -31q0 -19 -16 -43l-396 -606l449 -688q16 -24 16 -43q0 -31 -114 -31h-119q-102 0 -125 39l-385 622l-8 -2v-594q0 -65 -123 -65h-72q-123 0 -123 65z" />
<glyph unicode="L" horiz-adv-x="991" d="M141 82v1290q0 66 123 66h70q123 0 123 -66v-1104h456q32 0 47 -24t15 -78v-64q0 -54 -15 -78t-47 -24h-690q-43 0 -62.5 19.5t-19.5 62.5z" />
<glyph unicode="M" horiz-adv-x="1726" d="M141 61v1311q0 66 123 66h109q98 0 129 -56l344 -612l16 -29l19 35l346 606q31 56 129 56h106q123 0 123 -66v-1311q0 -65 -123 -65h-59q-123 0 -123 65v848l-8 2l-297 -530q-28 -39 -82 -39h-59q-54 0 -82 39l-297 530l-9 -2v-848q0 -65 -122 -65h-60q-123 0 -123 65z " />
<glyph unicode="N" horiz-adv-x="1472" d="M141 61v1311q0 66 123 66h88q49 0 81 -11.5t54 -44.5l484 -745l55 -84v819q0 66 123 66h59q123 0 123 -66v-1311q0 -65 -123 -65h-78q-50 0 -81.5 11t-53.5 44l-549 840v-830q0 -65 -122 -65h-60q-123 0 -123 65z" />
<glyph unicode="O" horiz-adv-x="1497" d="M92 717q0 354 170.5 543.5t487.5 189.5t486 -189t169 -544t-169 -544t-486 -189t-487.5 189.5t-170.5 543.5zM416 717q0 -226 85 -345.5t249 -119.5q163 0 247 119t84 346t-83.5 345t-247.5 118t-249 -118.5t-85 -344.5z" />
<glyph unicode="P" horiz-adv-x="1167" d="M141 61v1291q0 43 19.5 62.5t62.5 19.5h430q44 0 85 -4t91 -16t92.5 -32t84.5 -54.5t70.5 -80.5t46.5 -113t18 -149q0 -81 -20.5 -149t-52.5 -113t-76 -80t-87 -54.5t-90 -31.5t-80 -16t-61 -4h-217v-476q0 -65 -123 -65h-70q-123 0 -123 65zM457 807h182q33 0 61.5 7.5 t56 26t44 55.5t16.5 89t-16.5 89.5t-44 56t-56 26.5t-61.5 8h-182v-358z" />
<glyph unicode="Q" horiz-adv-x="1497" d="M92 717q0 354 170.5 543.5t487.5 189.5t486 -189t169 -544q0 -241 -83 -407.5t-239 -246.5v-8l314 -112q28 -9 28 -33q0 -21 -13.5 -68.5t-41 -94t-57.5 -46.5q-13 0 -238 90q-314 125 -610 242q-182 71 -277.5 245t-95.5 439zM416 717q0 -231 85 -352t249 -121 q163 0 247 121t84 352q0 227 -83.5 345t-247.5 118t-249 -118.5t-85 -344.5z" />
<glyph unicode="R" horiz-adv-x="1249" d="M141 61v1291q0 43 19.5 62.5t62.5 19.5h400q510 0 510 -385q0 -115 -65.5 -200t-174.5 -126v-8q38 -15 79 -68.5t68 -120.5l181 -450q10 -27 10 -39q0 -41 -123 -41h-84q-103 0 -119 43l-162 399q-34 69 -73.5 96t-132.5 27h-80v-500q0 -65 -123 -65h-70q-123 0 -123 65z M457 834h194q64 0 111 51.5t47 124.5q0 71 -46.5 113t-125.5 42h-180v-331z" />
<glyph unicode="S" horiz-adv-x="1024" d="M45 164q0 47 47.5 114.5t79.5 67.5q12 0 54 -23.5t108.5 -47t138.5 -23.5q37 0 68 6t61 21t47 44.5t17 71.5q0 30 -13.5 55t-33 43t-54.5 36.5t-64 31t-75 31.5t-76 33q-48 23 -83.5 45.5t-74 58t-62.5 76.5t-40 100.5t-16 130.5q0 86 27.5 156t74 117.5t109.5 79.5 t131.5 46.5t142.5 14.5q156 0 262.5 -44.5t106.5 -98.5q0 -45 -39 -112t-74 -67q-8 0 -37 13t-79.5 26t-110.5 13q-107 0 -149 -34.5t-42 -80.5q0 -33 12.5 -60.5t29 -45.5t50 -37t57.5 -29.5t70 -28.5q50 -21 74.5 -31.5t71.5 -35.5t72.5 -45t59.5 -54.5t51.5 -70.5 t30.5 -86.5t13 -108.5q0 -97 -27 -174.5t-71.5 -128t-105.5 -84t-125 -47.5t-134 -14q-111 0 -205.5 18t-152.5 46t-90.5 58.5t-32.5 57.5z" />
<glyph unicode="T" horiz-adv-x="1124" d="M16 1268v63q0 54 15 78.5t47 24.5h969q32 0 46.5 -24.5t14.5 -78.5v-63q0 -54 -14.5 -78.5t-46.5 -24.5h-326v-1104q0 -65 -123 -65h-72q-123 0 -123 65v1104h-325q-32 0 -47 24.5t-15 78.5z" />
<glyph unicode="U" horiz-adv-x="1458" d="M135 479v893q0 66 123 66h70q123 0 123 -66v-872q0 -108 77.5 -178t200.5 -70q124 0 202.5 70t78.5 178v872q0 66 123 66h67q123 0 123 -66v-893q0 -236 -156 -365.5t-438 -129.5t-438 129.5t-156 365.5z" />
<glyph unicode="V" horiz-adv-x="1263" d="M10 1393q0 45 125 45h68q102 0 121 -60l276 -886l23 -72h8l22 72l285 886q20 60 121 60h63q123 0 123 -45q0 -16 -6 -37l-442 -1317q-13 -43 -115 -43h-107q-101 0 -114 43l-443 1317q-8 28 -8 37z" />
<glyph unicode="W" horiz-adv-x="1806" d="M-8 1384q0 54 127 54h53q122 0 137 -64l154 -659q9 -38 30.5 -141.5t32.5 -153.5q8 52 19.5 103t30.5 119.5t20 72.5l168 680q10 43 113 43h77q103 0 113 -43l162 -680q31 -136 69 -309q16 66 40.5 177t29.5 132l160 659q15 64 137 64h23q127 0 127 -54l-5 -30 l-333 -1315q-12 -43 -113 -43h-150q-45 0 -76.5 11t-35.5 32l-168 709l-33 139l-35 -139l-174 -709q-12 -43 -112 -43h-148q-104 0 -113 43l-323 1315q-4 12 -4 30z" />
<glyph unicode="X" horiz-adv-x="1251" d="M16 35q0 17 21 51l422 662l-375 600q-21 35 -21 51q0 39 132 39h84q99 0 122 -39l234 -381l246 381q16 24 45 31.5t80 7.5h79q129 0 129 -39q0 -22 -20 -51l-387 -605l410 -657q18 -30 18 -51q0 -39 -129 -39h-80q-100 0 -123 39l-272 440l-283 -440q-17 -25 -45 -32 t-80 -7h-78q-129 0 -129 39z" />
<glyph unicode="Y" horiz-adv-x="1144" d="M-12 1397q0 41 131 41h88q100 0 123 -39l250 -438l251 438q23 39 123 39h74q129 0 129 -41q0 -21 -18 -51l-408 -664v-621q0 -65 -123 -65h-69q-123 0 -123 65v627l-408 658q-20 33 -20 51z" />
<glyph unicode="Z" horiz-adv-x="1261" d="M55 182q0 13 4 21l686 962h-569q-32 0 -46.5 24.5t-14.5 78.5v63q0 54 14.5 78.5t46.5 24.5h936q23 0 49.5 -72.5t26.5 -116.5q0 -12 -2 -16l-684 -961h624q32 0 47 -24t15 -78v-64q0 -54 -15 -78t-47 -24h-991q-25 0 -52.5 68.5t-27.5 113.5z" />
<glyph unicode="[" horiz-adv-x="595" d="M133 -201v1692q0 43 19.5 62.5t62.5 19.5h258q32 0 47 -19.5t15 -62.5v-31q0 -43 -15 -62.5t-47 -19.5h-104v-1466h104q32 0 47 -19.5t15 -62.5v-31q0 -43 -15 -62.5t-47 -19.5h-258q-43 0 -62.5 19.5t-19.5 62.5z" />
<glyph unicode="\" horiz-adv-x="739" d="M4 1403q0 35 88 35h47q104 0 123 -62l473 -1360q6 -15 6 -28q0 -33 -88 -33h-49q-103 0 -123 61l-471 1360q-6 15 -6 27z" />
<glyph unicode="]" horiz-adv-x="595" d="M63 -170q0 43 15 62.5t47 19.5h104v1466h-104q-32 0 -47 19.5t-15 62.5v31q0 43 15 62.5t47 19.5h258q43 0 62.5 -19.5t19.5 -62.5v-1692q0 -43 -19.5 -62.5t-62.5 -19.5h-258q-32 0 -47 19.5t-15 62.5v31z" />
<glyph unicode="^" horiz-adv-x="921" d="M72 682q0 15 8 31l264 630q24 62 86 62h64q59 0 86 -62l264 -630q8 -16 8 -31q0 -31 -66 -31h-43q-80 0 -106 62l-176 424l-176 -424q-26 -62 -105 -62h-43q-65 0 -65 31z" />
<glyph unicode="_" horiz-adv-x="1093" d="M-41 -176q0 54 14.5 78t46.5 24h1055q32 0 47 -24t15 -78v-14q0 -54 -15 -78.5t-47 -24.5h-1055q-32 0 -46.5 24.5t-14.5 78.5v14z" />
<glyph unicode="`" d="M111 1475q0 16 28.5 22t93.5 6q143 0 175 -55q25 -43 49.5 -85.5t38 -65t25 -42.5t16 -30t4.5 -17q0 -17 -13.5 -23.5t-50.5 -6.5q-106 0 -153 51q-61 66 -135 145q-55 59 -66.5 73.5t-11.5 27.5z" />
<glyph unicode="a" horiz-adv-x="1116" d="M86 283q0 58 10.5 105t47 101t98 90t172 60.5t260.5 24.5v67q0 59 -38 88t-122 29q-66 0 -125.5 -16.5t-94.5 -33t-42 -16.5q-30 0 -68.5 64t-38.5 100q0 55 113.5 98t278.5 43q231 0 335.5 -91t104.5 -251v-385q0 -126 12 -211t12 -86q0 -32 -83 -48.5t-146 -16.5 q-16 0 -28.5 7t-19.5 16.5t-13 27t-9 29t-6.5 32.5t-5.5 29q-7 -14 -27.5 -36t-56.5 -51t-94 -48.5t-123 -19.5q-157 0 -230 81.5t-73 217.5zM387 313q0 -40 26.5 -65t75.5 -25q58 0 109 36.5t76 92.5v113q-287 0 -287 -152z" />
<glyph unicode="b" horiz-adv-x="1165" d="M135 61v1418q0 65 123 65h57q123 0 123 -65v-455q87 63 209 63q205 0 318.5 -148t113.5 -402q0 -261 -106.5 -407t-276.5 -146q-92 0 -164.5 42.5t-109.5 110.5q-10 -47 -21 -88q-8 -32 -36 -42.5t-82 -10.5h-25q-123 0 -123 65zM438 352q71 -121 168 -121q166 0 166 306 q0 311 -190 311q-72 0 -144 -39v-457z" />
<glyph unicode="c" horiz-adv-x="993" d="M86 528q0 279 127.5 419t398.5 140q77 0 152.5 -15t131.5 -48.5t56 -77.5q0 -31 -41.5 -94.5t-66.5 -63.5q-7 0 -37 15q-93 45 -178 45q-121 0 -176.5 -76t-55.5 -235q0 -161 52 -237.5t167 -76.5q99 0 201 47q35 13 37 13q31 0 69 -60.5t38 -95.5q0 -32 -31 -58.5 t-75.5 -41.5t-97 -25.5t-91.5 -14t-64 -3.5q-262 0 -389 134t-127 410z" />
<glyph unicode="d" horiz-adv-x="1157" d="M86 537q0 254 113.5 402t318.5 148q122 0 209 -63v455q0 65 123 65h57q123 0 123 -65v-1119q0 -127 12.5 -211.5t12.5 -85.5q0 -32 -83.5 -48.5t-146.5 -16.5q-16 0 -28.5 7t-19.5 16.5t-13 26.5t-9 29t-6.5 32t-5.5 28q-37 -68 -109.5 -110.5t-164.5 -42.5 q-170 0 -276.5 146t-106.5 407zM393 537q0 -306 166 -306q97 0 168 121v457q-72 39 -143 39q-191 0 -191 -311z" />
<glyph unicode="e" horiz-adv-x="1103" d="M86 528q0 148 36 257t103.5 174.5t156.5 96.5t202 31q94 0 169.5 -28t125.5 -76t83.5 -115.5t48.5 -144t15 -164.5q0 -26 -41.5 -73.5t-62.5 -47.5h-523q10 -117 70 -166t166 -49q57 0 112 16t91 32t45 16q31 0 68.5 -60.5t37.5 -95.5q0 -36 -40.5 -65.5t-101 -46.5 t-120 -26t-106.5 -9q-270 0 -402.5 143.5t-132.5 400.5zM399 641h332q0 94 -37 150.5t-110 56.5q-152 0 -185 -207z" />
<glyph unicode="f" horiz-adv-x="665" d="M63 934v35q0 54 15 78t47 24h37v154q0 331 299 331q205 0 205 -100q0 -26 -19 -86.5t-45 -60.5q-6 0 -29 4t-34 4q-39 0 -56.5 -21t-17.5 -67v-158h102q32 0 47 -24t15 -78v-35q0 -54 -15 -78.5t-47 -24.5h-102v-770q0 -65 -123 -65h-57q-123 0 -123 65v770h-37 q-32 0 -47 24.5t-15 78.5z" />
<glyph unicode="g" horiz-adv-x="1118" d="M49 -152q0 80 48 141.5t139 96.5l2 8q-88 45 -88 154q0 106 122 170q-166 91 -166 305q0 96 34 167.5t95.5 114t139 62.5t172.5 20q80 0 158 -16h329q32 0 47 -24t15 -78v-35q0 -96 -49 -96q-53 0 -89 8l-4 -8q14 -19 23.5 -52.5t9.5 -62.5q0 -93 -32 -164t-90 -114 t-132 -64t-164 -21q-125 0 -125 -55q0 -20 15.5 -33t49 -22t64.5 -13.5t85.5 -12t89.5 -13.5q53 -10 94.5 -23t85 -36t72 -53.5t47 -78t18.5 -106.5q0 -158 -145 -253t-383 -95q-488 0 -488 282zM344 -102q0 -93 215 -93q103 0 157 27t54 74t-68.5 68.5t-246.5 33.5 q-53 -18 -82 -48t-29 -62zM393 723q0 -72 43 -107.5t111 -35.5t110.5 35.5t42.5 107.5q0 73 -42.5 109t-110.5 36t-111 -36t-43 -109z" />
<glyph unicode="h" horiz-adv-x="1157" d="M135 61v1418q0 65 123 65h57q123 0 123 -65v-531q51 61 126.5 100t162.5 39q155 0 232 -81t77 -250v-695q0 -65 -123 -65h-57q-123 0 -123 65v650q0 127 -131 127q-56 0 -97.5 -36.5t-66.5 -82.5v-658q0 -65 -123 -65h-57q-123 0 -123 65z" />
<glyph unicode="i" horiz-adv-x="542" d="M121 61v949q0 65 123 65h57q123 0 123 -65v-949q0 -65 -123 -65h-57q-123 0 -123 65zM121 1313v166q0 65 123 65h57q123 0 123 -65v-166q0 -66 -123 -66h-57q-123 0 -123 66z" />
<glyph unicode="j" horiz-adv-x="565" d="M-66 -328q0 42 22.5 92t51.5 50q5 0 27 -4.5t35 -4.5q39 0 56 21.5t17 67.5v1116q0 65 123 65h58q122 0 122 -65v-1112q0 -161 -83 -246.5t-216 -85.5q-121 0 -167 23t-46 83zM143 1313v166q0 65 123 65h58q122 0 122 -65v-166q0 -66 -122 -66h-58q-123 0 -123 66z" />
<glyph unicode="k" horiz-adv-x="1067" d="M135 61v1418q0 65 123 65h57q123 0 123 -65v-811l8 -2l248 370q17 24 45.5 31.5t79.5 7.5h76q115 0 115 -31q0 -15 -19 -40l-284 -406l333 -528q17 -31 17 -43q0 -31 -117 -31h-86q-100 0 -123 39l-285 471l-8 -2v-443q0 -65 -123 -65h-57q-123 0 -123 65z" />
<glyph unicode="l" horiz-adv-x="608" d="M129 315v1164q0 65 123 65h57q123 0 123 -65v-1168q0 -46 17.5 -67t56.5 -21q10 0 30 4t25 4q26 0 45 -60.5t19 -86.5q0 -100 -197 -100q-299 0 -299 331z" />
<glyph unicode="m" horiz-adv-x="1736" d="M102 999q0 32 84 49t146 17q16 0 28.5 -7t19.5 -16t13 -25t9 -27.5t6.5 -30.5t5.5 -27q49 65 129.5 110t173.5 45q210 0 270 -155q50 64 135 109.5t181 45.5q154 0 226.5 -80.5t72.5 -250.5v-695q0 -65 -123 -65h-58q-123 0 -123 65v650q0 63 -27.5 95t-92.5 32 q-94 0 -162 -117v-660q0 -65 -123 -65h-57q-123 0 -123 65v650q0 63 -28 95t-93 32q-99 0 -162 -119v-658q0 -65 -123 -65h-57q-123 0 -123 65v650q0 90 -6.5 152.5t-12.5 92.5t-6 43z" />
<glyph unicode="n" horiz-adv-x="1140" d="M102 999q0 32 84 49t146 17q16 0 28.5 -7t19.5 -16t13 -25t9 -27.5t6.5 -30.5t5.5 -27q49 65 130.5 110t174.5 45q154 0 227.5 -80.5t73.5 -250.5v-695q0 -65 -123 -65h-57q-123 0 -123 65v650q0 63 -29 95t-94 32q-56 0 -97.5 -36.5t-66.5 -82.5v-658q0 -65 -123 -65 h-57q-123 0 -123 65v650q0 90 -6.5 152.5t-12.5 92.5t-6 43z" />
<glyph unicode="o" horiz-adv-x="1165" d="M86 537q0 268 127 409t371 141q243 0 369 -141t126 -409q0 -269 -126 -411t-369 -142q-244 0 -371 142.5t-127 410.5zM393 537q0 -314 191 -314q188 0 188 314q0 156 -45.5 233.5t-142.5 77.5q-191 0 -191 -311z" />
<glyph unicode="p" horiz-adv-x="1173" d="M119 999q0 32 83.5 49t145.5 17q19 0 32.5 -8t22 -25.5t12.5 -29.5t8.5 -37t6.5 -31q36 68 109.5 110.5t165.5 42.5q170 0 276 -145.5t106 -406.5q0 -254 -114 -402.5t-318 -148.5q-122 0 -209 63v-403q0 -66 -122 -66h-58q-123 0 -123 66v1067q0 90 -6 152.5t-12 92.5 t-6 43zM446 262q72 -39 144 -39q190 0 190 312q0 305 -166 305q-97 0 -168 -121v-457z" />
<glyph unicode="q" horiz-adv-x="1159" d="M86 535q0 260 109 406t284 146q92 0 165.5 -42.5t109.5 -110.5l20 88q7 32 35.5 42.5t83.5 10.5h25q122 0 122 -65v-1366q0 -66 -122 -66h-58q-123 0 -123 66v403q-87 -63 -209 -63q-210 0 -326 148.5t-116 402.5zM393 535q0 -312 201 -312q72 0 143 39v457 q-71 121 -168 121q-176 0 -176 -305z" />
<glyph unicode="r" horiz-adv-x="749" d="M102 999q0 32 84 49t146 17q16 0 28.5 -7t19.5 -16t13 -25t9 -27.5t6.5 -30.5t5.5 -27q39 71 90.5 113t132.5 42q66 0 91.5 -34t25.5 -76t-18.5 -107t-45.5 -65q-13 0 -43.5 8t-52.5 8q-56 0 -98 -31t-66 -71v-658q0 -65 -123 -65h-57q-123 0 -123 65v650 q0 90 -6.5 152.5t-12.5 92.5t-6 43z" />
<glyph unicode="s" horiz-adv-x="845" d="M63 123q0 41 39.5 99.5t69.5 57.5q11 0 40.5 -14t74 -28.5t92.5 -14.5q119 0 119 86q0 16 -4.5 29.5t-15 25t-20 19.5t-29 17t-31.5 14t-38 15t-38 15q-37 14 -63.5 27t-61.5 39t-56.5 56.5t-37 78.5t-15.5 107q0 158 100.5 246.5t272.5 88.5q48 0 98.5 -6.5t99 -20 t79 -37t30.5 -54.5q0 -38 -30.5 -100t-57.5 -62q-8 0 -32.5 10.5t-63 21.5t-80.5 11q-109 0 -109 -72q0 -26 12.5 -46t39 -36t51 -26.5t65 -26.5t64.5 -27q81 -40 129.5 -105.5t48.5 -176.5q0 -159 -106.5 -254.5t-295.5 -95.5q-80 0 -156.5 16t-130 48.5t-53.5 74.5z" />
<glyph unicode="t" horiz-adv-x="700" d="M63 934v35q0 54 15 78t47 24h33l26 195q9 65 111 65h63q103 0 103 -65v-195h100q32 0 47 -24t15 -78v-35q0 -54 -15 -78.5t-47 -24.5h-100v-520q0 -46 17.5 -67t56.5 -21q10 0 30 4t25 4q26 0 44.5 -60t18.5 -87q0 -100 -196 -100q-299 0 -299 331v516h-33 q-32 0 -47 24.5t-15 78.5z" />
<glyph unicode="u" horiz-adv-x="1140" d="M121 315v695q0 65 123 65h57q123 0 123 -65v-650q0 -63 29 -95t94 -32q56 0 97.5 36.5t66.5 82.5v658q0 65 123 65h57q123 0 123 -65v-650q0 -126 12 -211t12 -86q0 -32 -83 -48.5t-146 -16.5q-16 0 -28.5 7t-19.5 16.5t-13 27t-9 29t-6.5 32.5t-5.5 29 q-49 -65 -130.5 -110t-174.5 -45q-154 0 -227.5 80.5t-73.5 250.5z" />
<glyph unicode="v" horiz-adv-x="993" d="M14 1030q0 45 125 45h68q102 0 115 -43l120 -379q14 -49 58 -247h8q34 169 57 247l121 379q13 43 115 43h51q123 0 123 -45q0 -16 -6 -37l-326 -954q-13 -43 -115 -43h-65q-102 0 -115 43l-325 954q-9 31 -9 37z" />
<glyph unicode="w" horiz-adv-x="1529" d="M37 1022q0 53 127 53q83 0 119.5 -10t42.5 -33l139 -540l22 -91q4 16 12.5 48t12.5 49l131 534q9 43 113 43h49q45 0 77 -11t36 -32l131 -547q3 -15 10 -42.5t10 -41.5l25 91l141 540q12 43 121 43q127 0 127 -53q0 -7 -4 -31l-242 -952q-12 -43 -113 -43h-100 q-101 0 -113 43l-125 487q-4 14 -11 43.5t-11 44.5l-23 -90l-116 -485q-4 -21 -36 -32t-77 -11h-100q-101 0 -113 43l-258 952q-4 12 -4 31z" />
<glyph unicode="x" horiz-adv-x="993" d="M10 33q0 13 23 51l309 459l-291 442q-22 36 -22 53q0 37 129 37h65q53 0 81 -7t44 -32l125 -202l31 -50q6 9 17.5 27t17.5 27l127 198q16 25 44 32t81 7h59q129 0 129 -37q0 -13 -23 -51l-299 -442l304 -459q22 -36 22 -53q0 -37 -129 -37h-66q-53 0 -80.5 7t-43.5 32 l-142 225l-26 43q-4 -7 -13.5 -21.5t-13.5 -21.5l-143 -225q-16 -25 -44 -32t-81 -7h-62q-129 0 -129 37z" />
<glyph unicode="y" horiz-adv-x="985" d="M20 1030q0 45 125 45h66q102 0 115 -43l120 -379q24 -80 58 -247h8q38 186 57 247l121 379q13 43 115 43h49q123 0 123 -45q0 -16 -6 -37l-469 -1372q-16 -43 -115 -43h-35q-123 0 -123 43q0 16 9 37l129 342l-338 993q-9 31 -9 37z" />
<glyph unicode="z" horiz-adv-x="1001" d="M55 156q0 19 6 28l469 647h-380q-32 0 -47 24.5t-15 78.5v35q0 54 15 78t47 24h724q17 0 38.5 -57.5t21.5 -100.5q0 -21 -6 -30l-467 -643h420q32 0 46.5 -24.5t14.5 -78.5v-35q0 -54 -14.5 -78t-46.5 -24h-766q-19 0 -39.5 56.5t-20.5 99.5z" />
<glyph unicode="{" horiz-adv-x="561" d="M37 633v24q0 38 14 61.5t45 41.5q53 23 75 76.5t22 154.5v344q0 104 56.5 171t145.5 67h80q32 0 47 -19.5t15 -62.5v-29q0 -79 -54 -82h4q-32 0 -45.5 -16.5t-13.5 -56.5v-349q0 -234 -139 -313q139 -79 139 -313v-348q0 -74 49 -74h2q58 -3 58 -82v-29q0 -43 -15 -62.5 t-47 -19.5h-80q-89 0 -145.5 67t-56.5 171v344q0 101 -22 154.5t-75 76.5q-31 18 -45 41.5t-14 61.5z" />
<glyph unicode="|" horiz-adv-x="512" d="M139 -221v1732q0 32 24.5 47t78.5 15h30q54 0 78.5 -15t24.5 -47v-1732q0 -32 -24.5 -47t-78.5 -15h-30q-54 0 -78.5 15t-24.5 47z" />
<glyph unicode="}" horiz-adv-x="561" d="M39 -172q0 43 13.5 62.5t43.5 19.5h2q49 0 49 74v348q0 114 36 194.5t104 118.5q-68 38 -104 118.5t-36 194.5v349q0 41 -11.5 57t-43.5 16h-2q-51 0 -51 82v29q0 43 14.5 62.5t46.5 19.5h80q89 0 146 -67t57 -171v-344q0 -102 21.5 -155t74.5 -76q60 -35 60 -103v-24 q0 -68 -60 -103q-53 -23 -74.5 -76t-21.5 -155v-344q0 -104 -57 -171t-146 -67h-80q-32 0 -46.5 19.5t-14.5 62.5v29z" />
<glyph unicode="~" horiz-adv-x="1120" d="M107 498.5q1 15.5 6 31.5q27 61 96.5 102.5t167.5 41.5q43 0 173 -29t167 -31q47 0 80 33q27 27 51.5 33t48.5 -2l27 -6q27 -7 40.5 -22t12.5 -30.5t-6 -31.5q-27 -61 -96.5 -102.5t-167.5 -41.5q-43 0 -173 29t-167 31q-47 0 -80 -33q-26 -27 -50.5 -33t-48.5 2l-26 6 q-28 7 -42 22t-13 30.5z" />
<glyph unicode="&#xa1;" horiz-adv-x="602" d="M96 -311q0 19 16 155.5t47.5 386.5t39.5 318q5 36 25 50.5t79 14.5h23q60 0 82 -15.5t22 -49.5v-852q0 -66 -123 -66h-88q-123 0 -123 58zM160 821v189q0 65 123 65h65q123 0 123 -65v-189q0 -65 -123 -65h-65q-123 0 -123 65z" />
<glyph unicode="&#xa2;" horiz-adv-x="995" d="M86 528q0 261 110 400.5t343 156.5v56q0 61 55 61q32 0 46.5 -14.5t14.5 -46.5v-56q70 -5 131.5 -21.5t105.5 -47.5t44 -70q0 -31 -42 -94.5t-67 -63.5q-6 0 -61 26t-111 32v-621q45 4 85.5 18.5t64.5 27t33 12.5q31 0 68.5 -60.5t37.5 -95.5q0 -32 -29 -58t-77 -42 t-91.5 -25t-91.5 -14v-86q0 -62 -55 -62q-32 0 -46.5 15t-14.5 47v84q-230 12 -341.5 146t-111.5 396zM393 537q0 -134 35 -209.5t111 -96.5v607q-146 -44 -146 -301z" />
<glyph unicode="&#xa3;" horiz-adv-x="1005" d="M37 82v39q0 23 16 43t39 37t46 37t39 51t16 69v279h-68q-32 0 -47 24t-15 78v35q0 54 15 78.5t47 24.5h68v151q0 422 471 422q225 0 225 -92q0 -54 -27.5 -104t-54.5 -50q-3 0 -21.5 4t-48.5 8.5t-61 4.5q-94 0 -140.5 -44t-46.5 -139v-161h222q32 0 46.5 -24.5 t14.5 -78.5v-35q0 -54 -14.5 -78t-46.5 -24h-222v-123q0 -191 -83 -274h456q32 0 47 -24.5t15 -78.5v-35q0 -54 -15 -78t-47 -24h-743q-43 0 -62.5 19.5t-19.5 62.5z" />
<glyph unicode="&#xa4;" horiz-adv-x="1093" d="M80 915q0 28 24 52l62 61q25 25 51 25t51 -25l58 -57q98 53 206 53q112 0 211 -55l60 59q25 25 51 25t51 -25l62 -61q24 -24 24 -52q0 -27 -24 -51l-60 -59q58 -99 58 -213q0 -107 -54 -207l50 -49q24 -24 24 -51q0 -28 -24 -52l-62 -61q-25 -25 -51 -25t-51 25l-47 47 q-95 -59 -218 -59q-116 0 -215 55l-43 -43q-25 -25 -51 -25t-51 25l-61 61q-25 25 -25 52q0 26 25 51l45 45q-56 98 -56 211q0 120 60 217l-56 55q-24 24 -24 51zM334 592q0 -83 57.5 -141t140.5 -58t141 58t58 141t-58 141t-141 58t-140.5 -58t-57.5 -141z" />
<glyph unicode="&#xa5;" horiz-adv-x="1144" d="M-12 1397q0 41 131 41h88q100 0 123 -39l250 -438l251 438q23 39 123 39h74q129 0 129 -41q0 -21 -18 -51l-312 -508h170q62 0 62 -62v-31q0 -63 -62 -63h-266v-129h266q32 0 47 -14.5t15 -46.5v-31q0 -62 -62 -62h-266v-338q0 -65 -123 -65h-69q-123 0 -123 65v338h-273 q-32 0 -46.5 15t-14.5 47v31q0 32 14.5 46.5t46.5 14.5h273v131h-273q-32 0 -46.5 14.5t-14.5 46.5v31q0 32 14.5 47t46.5 15h181l-316 508q-20 33 -20 51z" />
<glyph unicode="&#xa6;" horiz-adv-x="512" d="M139 -221v667q0 66 103 66h30q103 0 103 -66v-667q0 -66 -103 -66h-30q-103 0 -103 66zM139 844v667q0 66 103 66h30q103 0 103 -66v-667q0 -66 -103 -66h-30q-103 0 -103 66z" />
<glyph unicode="&#xa7;" horiz-adv-x="878" d="M84 1135q0 147 101.5 231t275.5 84q36 0 78 -4.5t97.5 -16.5t91.5 -40t36 -68q0 -27 -30.5 -89.5t-57.5 -62.5q-1 0 -60 21.5t-114 21.5q-111 0 -111 -63q0 -27 22.5 -47.5t59 -35.5t80 -30.5t87 -40.5t80 -58t59 -89t22.5 -129q0 -135 -76 -223q78 -75 78 -195 q0 -147 -101.5 -231t-275.5 -84q-36 0 -78 4.5t-97.5 16.5t-91.5 40t-36 68q0 27 30.5 89t57.5 62q1 0 60 -21.5t114 -21.5q111 0 111 64q0 27 -22.5 47.5t-59 35.5t-80 30.5t-87 40.5t-80 58t-59 89t-22.5 129q0 131 76 223q-78 68 -78 195zM352 750q0 -60 41 -92t123 -60 q19 43 19 88q0 60 -41.5 91.5t-122.5 60.5q-19 -37 -19 -88z" />
<glyph unicode="&#xa8;" d="M23 1249v123q0 66 122 66q123 0 123 -66v-123q0 -65 -123 -65q-122 0 -122 65zM391 1249v123q0 66 123 66t123 -66v-123q0 -65 -123 -65t-123 65z" />
<glyph unicode="&#xa9;" horiz-adv-x="1513" d="M20 717q0 150 58 285.5t156.5 233.5t234 156t285.5 58q200 0 368.5 -98t266.5 -266.5t98 -368.5t-98 -368.5t-266.5 -266.5t-368.5 -98q-150 0 -285.5 58t-234 156t-156.5 233.5t-58 285.5zM152 717q0 -122 47.5 -233.5t128.5 -192.5t192.5 -128.5t233.5 -47.5 t233.5 47.5t192.5 128.5t128.5 192.5t47.5 233.5t-47.5 233.5t-128.5 192.5t-192.5 128.5t-233.5 47.5t-233.5 -47.5t-192.5 -128.5t-128.5 -192.5t-47.5 -233.5zM403 723q0 407 381 407q84 0 162 -23t78 -56q0 -26 -26.5 -67.5t-47.5 -41.5q-3 0 -23 9t-58.5 18.5 t-86.5 9.5q-198 0 -198 -256q0 -262 196 -262q48 0 91 11.5t67.5 23.5t28.5 12q24 0 45.5 -40t21.5 -60q0 -25 -26.5 -44.5t-67 -30.5t-82 -16.5t-78.5 -5.5q-193 0 -285 100t-92 312z" />
<glyph unicode="&#xaa;" horiz-adv-x="653" d="M86 1049q0 29 5.5 52.5t23.5 50.5t49 45t86 30t129 12v33q0 30 -19 43.5t-61 13.5q-33 0 -63 -7.5t-47.5 -15.5t-20.5 -8q-14 0 -32.5 31.5t-18.5 50.5q0 26 56 48t138 22q217 0 217 -170v-193q0 -46 3 -78t6.5 -47t3.5 -20q0 -18 -41 -26.5t-74 -8.5q-9 0 -15.5 4 t-10.5 13.5t-5.5 15.5t-4 20t-3.5 17q-5 -10 -20.5 -25.5t-52 -33t-78.5 -17.5q-78 0 -114 40t-36 108zM236 1065q0 -20 13 -32.5t38 -12.5q29 0 54.5 17.5t37.5 45.5v56q-143 0 -143 -74z" />
<glyph unicode="&#xab;" horiz-adv-x="964" d="M55 528q0 52 33 90l260 314q26 29 55 29q32 0 76.5 -34t44.5 -67q0 -21 -18 -45l-225 -287l225 -286q18 -24 18 -47q0 -30 -43.5 -65.5t-77.5 -35.5q-27 0 -55 31l-260 313q-33 38 -33 90zM463 528q0 52 33 90l260 314q26 29 55 29q32 0 76.5 -34t44.5 -67q0 -20 -19 -45 l-225 -287l225 -286q19 -25 19 -47q0 -30 -43.5 -65.5t-77.5 -35.5q-27 0 -55 31l-260 313q-33 38 -33 90z" />
<glyph unicode="&#xac;" horiz-adv-x="1146" d="M61 598v14q0 54 15 78.5t47 24.5h881q43 0 62 -19.5t19 -62.5v-420q0 -66 -81 -66h-41q-82 0 -82 66v283h-758q-32 0 -47 24t-15 78z" />
<glyph unicode="&#xad;" d="M61 537v14q0 54 15 78t47 24h399q32 0 47 -24t15 -78v-14q0 -54 -15 -78.5t-47 -24.5h-399q-32 0 -47 24.5t-15 78.5z" />
<glyph unicode="&#xae;" horiz-adv-x="1513" d="M20 717q0 150 58 285.5t156.5 233.5t234 156t285.5 58q200 0 368.5 -98t266.5 -266.5t98 -368.5t-98 -368.5t-266.5 -266.5t-368.5 -98q-150 0 -285.5 58t-234 156t-156.5 233.5t-58 285.5zM152 717q0 -122 47.5 -233.5t128.5 -192.5t192.5 -128.5t233.5 -47.5 t233.5 47.5t192.5 128.5t128.5 192.5t47.5 233.5t-47.5 233.5t-128.5 192.5t-192.5 128.5t-233.5 47.5t-233.5 -47.5t-192.5 -128.5t-128.5 -192.5t-47.5 -233.5zM494 356v721q0 45 45 45h223q285 0 285 -215q0 -63 -37.5 -110.5t-98.5 -71.5v-8q23 -9 47 -37.5t37 -63.5 l101 -251q6 -15 6 -23q0 -23 -68 -23h-47q-56 0 -67 25l-91 223q-19 38 -41 53t-73 15h-45v-279q0 -37 -70 -37h-37q-69 0 -69 37zM670 786h108q35 0 61.5 29.5t26.5 69.5t-26 64t-70 24h-100v-187z" />
<glyph unicode="&#xaf;" d="M43 1305v30q0 43 14.5 62.5t46.5 19.5h441q32 0 46.5 -19.5t14.5 -62.5v-30q0 -43 -14.5 -62.5t-46.5 -19.5h-441q-32 0 -46.5 19.5t-14.5 62.5z" />
<glyph unicode="&#xb0;" horiz-adv-x="706" d="M78 1178q0 113 79 192.5t191 79.5q113 0 193 -80t80 -192t-80 -191.5t-193 -79.5q-112 0 -191 79t-79 192zM211 1178q0 -60 40 -102t97 -42t98 42t41 102t-41 102.5t-98 42.5t-97 -42.5t-40 -102.5z" />
<glyph unicode="&#xb1;" horiz-adv-x="1146" d="M84 102v15q0 54 14.5 78t46.5 24h856q32 0 47 -24t15 -78v-15q0 -54 -15 -78t-47 -24h-856q-32 0 -46.5 24t-14.5 78zM84 741v15q0 54 14.5 78t46.5 24h310v316q0 32 24 46.5t78 14.5h29q54 0 78 -14.5t24 -46.5v-316h313q32 0 47 -24t15 -78v-15q0 -54 -15 -78t-47 -24 h-313v-311q0 -32 -24 -47t-78 -15h-29q-54 0 -78 15t-24 47v311h-310q-32 0 -46.5 24t-14.5 78z" />
<glyph unicode="&#xb2;" d="M33 705q0 10 4 18l303 369q45 55 45 116q0 47 -31 72t-80 25q-34 0 -65 -12.5t-50 -25t-24 -12.5q-26 0 -47.5 27.5t-21.5 54.5q0 50 73 79.5t166 29.5q122 0 191 -65t69 -169q0 -106 -73 -196l-224 -279h275q20 0 28.5 -13t8.5 -44v-21q0 -33 -8.5 -47t-28.5 -14h-475 q-13 0 -24 38.5t-11 68.5z" />
<glyph unicode="&#xb3;" d="M43 688q0 21 19.5 55.5t39.5 34.5q6 0 29.5 -12t62.5 -24.5t82 -12.5q55 0 87 31t32 86q0 62 -33 92.5t-108 30.5h-33q-37 0 -37 59v23q0 59 37 59h23q58 0 91.5 27.5t33.5 72.5q0 46 -25.5 72.5t-73.5 26.5q-40 0 -71 -9.5t-47.5 -19.5t-22.5 -10q-18 0 -39.5 33.5 t-21.5 58.5q0 42 68.5 65t164.5 23q114 0 181 -57t67 -154q0 -61 -30 -105.5t-83 -68.5v-8q139 -55 139 -213q0 -119 -74.5 -187.5t-197.5 -68.5q-38 0 -79.5 5t-83.5 16t-69.5 31.5t-27.5 47.5z" />
<glyph unicode="&#xb4;" d="M111 1208q0 7 4.5 17t16 30t25 42.5t38 65t49.5 85.5q32 55 174 55q66 0 94.5 -6t28.5 -22q0 -13 -12.5 -28.5t-65.5 -72.5q-74 -79 -135 -145q-47 -51 -154 -51q-37 0 -50 6.5t-13 23.5z" />
<glyph unicode="&#xb5;" horiz-adv-x="1159" d="M109 -356v1366q0 65 122 65h58q123 0 123 -65v-650q0 -63 29 -95t94 -32q56 0 97 36t66 83v658q0 65 123 65h58q122 0 122 -65v-650q0 -127 12.5 -211.5t12.5 -85.5q0 -32 -83 -48.5t-146 -16.5q-16 0 -28.5 7t-19.5 16.5t-13 27t-9 29t-6.5 32.5t-5.5 29 q-48 -65 -129 -109.5t-174 -45.5v-340q0 -66 -123 -66h-58q-122 0 -122 66z" />
<glyph unicode="&#xb6;" horiz-adv-x="1054" d="M84 969q0 205 134.5 335t330.5 130h416q32 0 46.5 -15.5t14.5 -50.5v-2q0 -31 -14.5 -45t-46.5 -14h-54v-1596q0 -32 -14 -46.5t-47 -14.5h-4q-32 0 -47 14.5t-15 46.5v1596h-159v-1596q0 -31 -14.5 -46t-47.5 -15h-4q-32 0 -46.5 14.5t-14.5 46.5v795 q-175 20 -294.5 152.5t-119.5 310.5z" />
<glyph unicode="&#xb7;" horiz-adv-x="546" d="M145 735q0 60 42 102t102 42t101.5 -42t41.5 -102t-41.5 -101.5t-101.5 -41.5t-102 41.5t-42 101.5z" />
<glyph unicode="&#xb8;" d="M59 -332q0 45 24 67.5t42 22.5q19 0 78.5 -21.5t107.5 -21.5q49 0 49 35q0 17 -17 30t-37 20t-37 19.5t-17 28.5q0 14 51 172h135l-24 -94q64 -9 110.5 -46.5t46.5 -108.5q0 -205 -243 -205q-97 0 -183 28t-86 74z" />
<glyph unicode="&#xb9;" horiz-adv-x="444" d="M31 1354q0 29 30 35l299 53q13 0 30.5 -9.5t17.5 -19.5v-774q0 -39 -72 -39h-33q-72 0 -72 39v639l-161 -27q-20 0 -29.5 34t-9.5 69z" />
<glyph unicode="&#xba;" horiz-adv-x="690" d="M96 1178q0 132 63.5 202t184.5 70t183.5 -69.5t62.5 -202.5q0 -134 -62.5 -204.5t-183.5 -70.5t-184.5 70.5t-63.5 204.5zM250 1178q0 -156 94 -156q48 0 70 39t22 117q0 77 -22 115t-70 38q-94 0 -94 -153z" />
<glyph unicode="&#xbb;" horiz-adv-x="964" d="M86 195q0 23 18 47l226 286l-226 287q-18 24 -18 45q0 33 44.5 67t76.5 34q29 0 55 -29l260 -314q33 -38 33 -90t-33 -90l-260 -313q-28 -31 -55 -31q-34 0 -77.5 35.5t-43.5 65.5zM494 195q0 23 18 47l225 286l-225 287q-18 24 -18 45q0 33 44 67t76 34q30 0 56 -29 l260 -314q33 -38 33 -90t-33 -90l-260 -313q-28 -31 -56 -31q-34 0 -77 35.5t-43 65.5z" />
<glyph unicode="&#xbc;" horiz-adv-x="1374" d="M31 1354q0 29 30 35l299 53q13 0 30.5 -9.5t17.5 -19.5v-774q0 -39 -72 -39h-33q-72 0 -72 39v639l-161 -27q-20 0 -29.5 34t-9.5 69zM229 23q0 11 13 30l735 1327q29 54 92 54h35q43 0 43 -23q0 -13 -12 -31l-736 -1327q-31 -53 -92 -53h-35q-43 0 -43 23zM713 279 q0 10 2 14l354 524q18 23 74 23h31q71 0 71 -39v-494h47q35 0 35 -59v-21q0 -59 -35 -59h-47v-133q0 -39 -71 -39h-33q-72 0 -72 39v133h-313q-14 0 -28.5 41.5t-14.5 69.5zM891 307h178v185l14 108h-8z" />
<glyph unicode="&#xbd;" horiz-adv-x="1527" d="M31 1354q0 29 30 35l299 53q13 0 30.5 -9.5t17.5 -19.5v-774q0 -39 -72 -39h-33q-72 0 -72 39v639l-161 -27q-20 0 -29.5 34t-9.5 69zM229 23q0 11 13 30l735 1327q29 54 92 54h35q43 0 43 -23q0 -13 -12 -31l-736 -1327q-31 -53 -92 -53h-35q-43 0 -43 23zM889 106 q0 11 4 19l303 369q45 55 45 116q0 47 -31 72t-80 25q-34 0 -65 -12.5t-50 -25t-24 -12.5q-26 0 -47.5 27.5t-21.5 54.5q0 50 73 79.5t166 29.5q122 0 191 -65t69 -169q0 -106 -73 -196l-224 -279h275q20 0 28.5 -13t8.5 -44v-21q0 -33 -8.5 -47t-28.5 -14h-475 q-13 0 -24 38t-11 68z" />
<glyph unicode="&#xbe;" horiz-adv-x="1511" d="M55 688q0 21 20 55.5t40 34.5q6 0 29.5 -12t62.5 -24.5t82 -12.5q55 0 87 31t32 86q0 62 -33.5 92.5t-108.5 30.5h-33q-36 0 -36 59v23q0 59 36 59h23q58 0 91.5 27.5t33.5 72.5q0 46 -25 72.5t-73 26.5q-40 0 -71 -9.5t-48 -19.5t-23 -10q-18 0 -39.5 33.5t-21.5 58.5 q0 42 68.5 65t164.5 23q114 0 181 -57t67 -154q0 -124 -112 -174v-8q139 -55 139 -213q0 -119 -75 -187.5t-198 -68.5q-38 0 -79.5 5t-83.5 16t-69.5 31.5t-27.5 47.5zM307 23q0 12 12 30l736 1327q29 54 92 54h35q43 0 43 -23q0 -11 -13 -31l-735 -1327q-31 -53 -92 -53 h-35q-43 0 -43 23zM791 279q0 10 2 14l354 524q18 23 74 23h30q72 0 72 -39v-494h47q35 0 35 -59v-21q0 -59 -35 -59h-47v-133q0 -39 -72 -39h-32q-72 0 -72 39v133h-313q-14 0 -28.5 41.5t-14.5 69.5zM969 307h178v185l14 108h-8z" />
<glyph unicode="&#xbf;" horiz-adv-x="870" d="M37 -14q0 64 19 119.5t50 97t69 78.5t77.5 70t73.5 64t59.5 69t32.5 77q9 32 32.5 43.5t75.5 11.5h47q54 0 77.5 -13.5t23.5 -45.5q0 -80 -36.5 -152.5t-100.5 -148.5q-21 -24 -62.5 -69.5t-62 -69t-38.5 -55t-18 -56.5q0 -115 152 -115q52 0 102.5 16t83.5 32t43 16 q39 0 84 -65.5t45 -102.5q0 -43 -37 -76.5t-96 -52t-123.5 -28t-128.5 -9.5q-205 0 -324.5 98t-119.5 267zM395 821v189q0 65 123 65h66q123 0 123 -65v-189q0 -65 -123 -65h-66q-123 0 -123 65z" />
<glyph unicode="&#xc0;" horiz-adv-x="1255" d="M0 41q0 9 8 37l451 1317q16 43 116 43h107q101 0 117 -43l450 -1317q6 -21 6 -37q0 -45 -102 -45h-90q-102 0 -115 43l-82 250h-483l-82 -250q-14 -43 -94 -43h-82q-125 0 -125 45zM354 1837q0 17 29 23t94 6q141 0 174 -56q25 -44 49.5 -86t38 -64t25 -42t16 -30 t4.5 -17q0 -17 -13.5 -24t-49.5 -7q-107 0 -154 51q-61 66 -135 145q-55 59 -66.5 73.5t-11.5 27.5zM471 559h307l-116 365q-15 48 -31 131h-8q-18 -95 -31 -131z" />
<glyph unicode="&#xc1;" horiz-adv-x="1255" d="M0 41q0 9 8 37l451 1317q16 43 116 43h107q101 0 117 -43l450 -1317q6 -21 6 -37q0 -45 -102 -45h-90q-102 0 -115 43l-82 250h-483l-82 -250q-14 -43 -94 -43h-82q-125 0 -125 45zM471 559h307l-116 365q-15 48 -31 131h-8q-18 -95 -31 -131zM485 1571q0 7 4.5 17t16 30 t25 42t38 64t49.5 86q33 56 175 56q65 0 93.5 -6t28.5 -23q0 -13 -12.5 -28.5t-65.5 -72.5q-74 -79 -135 -145q-47 -51 -153 -51q-36 0 -50 7t-14 24z" />
<glyph unicode="&#xc2;" horiz-adv-x="1255" d="M0 41q0 9 8 37l451 1317q16 43 116 43h107q101 0 117 -43l450 -1317q6 -21 6 -37q0 -45 -102 -45h-90q-102 0 -115 43l-82 250h-483l-82 -250q-14 -43 -94 -43h-82q-125 0 -125 45zM348 1554q0 13 12 31l134 209q16 25 43.5 32t80.5 7h23q53 0 81 -7t44 -32l133 -209 q12 -18 12 -31q0 -20 -41 -20h-45q-105 0 -139 49l-57 82l-58 -80q-22 -30 -54.5 -40.5t-82.5 -10.5h-45q-41 0 -41 20zM471 559h307l-116 365q-15 48 -31 131h-8q-18 -95 -31 -131z" />
<glyph unicode="&#xc3;" horiz-adv-x="1255" d="M0 41q0 9 8 37l451 1317q16 43 116 43h107q101 0 117 -43l450 -1317q6 -21 6 -37q0 -45 -102 -45h-90q-102 0 -115 43l-82 250h-483l-82 -250q-14 -43 -94 -43h-82q-125 0 -125 45zM241 1592.5q-9 26.5 3 47.5q22 60 81 102t142 42q37 0 147.5 -29t141.5 -31q36 0 67 33 q22 27 42 33t40 -2l23 -6q34 -10 43.5 -36.5t-2.5 -47.5q-22 -60 -81.5 -102t-142.5 -42q-37 0 -147 29t-141 31q-40 0 -68 -33q-22 -27 -42 -33t-40 2l-22 6q-35 10 -44 36.5zM471 559h307l-116 365q-15 48 -31 131h-8q-18 -95 -31 -131z" />
<glyph unicode="&#xc4;" horiz-adv-x="1255" d="M0 41q0 9 8 37l451 1317q16 43 116 43h107q101 0 117 -43l450 -1317q6 -21 6 -37q0 -45 -102 -45h-90q-102 0 -115 43l-82 250h-483l-82 -250q-14 -43 -94 -43h-82q-125 0 -125 45zM322 1612v123q0 65 122 65q123 0 123 -65v-123q0 -66 -123 -66q-122 0 -122 66zM471 559 h307l-116 365q-15 48 -31 131h-8q-18 -95 -31 -131zM690 1612v123q0 65 123 65t123 -65v-123q0 -66 -123 -66t-123 66z" />
<glyph unicode="&#xc5;" horiz-adv-x="1255" d="M0 41q0 9 8 37l451 1317q16 43 116 43h107q101 0 117 -43l450 -1317q6 -21 6 -37q0 -45 -102 -45h-90q-102 0 -115 43l-82 250h-483l-82 -250q-14 -43 -94 -43h-82q-125 0 -125 45zM426 1692q0 86 58.5 145t144.5 59t145.5 -59t59.5 -145t-59.5 -144.5t-145.5 -58.5 t-144.5 58.5t-58.5 144.5zM471 559h307l-116 365q-15 48 -31 131h-8q-18 -95 -31 -131zM555 1690q0 -31 21.5 -52.5t52.5 -21.5t53.5 21.5t22.5 52.5t-22.5 53t-53.5 22t-52.5 -22t-21.5 -53z" />
<glyph unicode="&#xc6;" horiz-adv-x="1873" d="M2 41q0 21 8 37l658 1300q29 56 90 56h950q32 0 46.5 -24.5t14.5 -78.5v-63q0 -54 -14.5 -78.5t-46.5 -24.5h-649l57 -297h537q32 0 46.5 -24t14.5 -78v-64q0 -54 -14.5 -78t-46.5 -24h-484l64 -332h477q32 0 47 -24t15 -78v-64q0 -54 -15 -78t-47 -24h-678q-33 0 -49 14 t-22 47l-43 228h-498l-123 -250q-21 -43 -94 -43h-76q-125 0 -125 45zM553 559h315l-67 371v170h-8l-58 -168z" />
<glyph unicode="&#xc7;" horiz-adv-x="1267" d="M92 721q0 729 684 729q93 0 190 -17t167.5 -51t70.5 -75q0 -45 -48 -119t-85 -74q-6 0 -41.5 16.5t-104.5 33t-155 16.5q-180 0 -267 -114.5t-87 -346.5q0 -467 350 -467q67 0 130 13t100 28t67 28t39 13q30 0 59.5 -38t45.5 -79t16 -61q0 -39 -37.5 -71t-98.5 -51.5 t-126.5 -31.5t-133.5 -16l-14 -60q65 -9 111.5 -46.5t46.5 -108.5q0 -205 -244 -205q-97 0 -182.5 28t-85.5 74q0 45 23.5 67.5t41.5 22.5q19 0 79 -21.5t108 -21.5q49 0 49 35q0 17 -17 30t-37.5 20t-37.5 19.5t-17 28.5q0 13 41 138q-306 19 -453 198.5t-147 536.5z" />
<glyph unicode="&#xc8;" horiz-adv-x="1118" d="M141 82v1270q0 43 19.5 62.5t62.5 19.5h750q32 0 46.5 -24.5t14.5 -78.5v-63q0 -54 -14.5 -78.5t-46.5 -24.5h-516v-297h461q32 0 46.5 -24t14.5 -78v-64q0 -54 -14.5 -78t-46.5 -24h-461v-332h518q32 0 46.5 -24t14.5 -78v-64q0 -54 -14.5 -78t-46.5 -24h-752 q-43 0 -62.5 19.5t-19.5 62.5zM330 1837q0 17 29 23t94 6q141 0 174 -56q25 -44 49.5 -86t38 -64t25 -42t16 -30t4.5 -17q0 -17 -14 -24t-50 -7q-106 0 -153 51q-61 66 -135 145q-55 59 -66.5 73.5t-11.5 27.5z" />
<glyph unicode="&#xc9;" horiz-adv-x="1118" d="M141 82v1270q0 43 19.5 62.5t62.5 19.5h750q32 0 46.5 -24.5t14.5 -78.5v-63q0 -54 -14.5 -78.5t-46.5 -24.5h-516v-297h461q32 0 46.5 -24t14.5 -78v-64q0 -54 -14.5 -78t-46.5 -24h-461v-332h518q32 0 46.5 -24t14.5 -78v-64q0 -54 -14.5 -78t-46.5 -24h-752 q-43 0 -62.5 19.5t-19.5 62.5zM461 1571q0 7 4.5 17t16 30t25 42t38 64t49.5 86q33 56 174 56q65 0 94 -6t29 -23q0 -13 -12.5 -28.5t-65.5 -72.5q-74 -79 -135 -145q-47 -51 -154 -51q-36 0 -49.5 7t-13.5 24z" />
<glyph unicode="&#xca;" horiz-adv-x="1118" d="M141 82v1270q0 43 19.5 62.5t62.5 19.5h750q32 0 46.5 -24.5t14.5 -78.5v-63q0 -54 -14.5 -78.5t-46.5 -24.5h-516v-297h461q32 0 46.5 -24t14.5 -78v-64q0 -54 -14.5 -78t-46.5 -24h-461v-332h518q32 0 46.5 -24t14.5 -78v-64q0 -54 -14.5 -78t-46.5 -24h-752 q-43 0 -62.5 19.5t-19.5 62.5zM324 1554q0 13 12 31l133 209q16 25 44 32t81 7h22q53 0 81 -7t44 -32l133 -209q13 -19 13 -31q0 -20 -41 -20h-45q-105 0 -139 49l-58 82l-57 -80q-22 -30 -54.5 -40.5t-82.5 -10.5h-45q-41 0 -41 20z" />
<glyph unicode="&#xcb;" horiz-adv-x="1118" d="M141 82v1270q0 43 19.5 62.5t62.5 19.5h750q32 0 46.5 -24.5t14.5 -78.5v-63q0 -54 -14.5 -78.5t-46.5 -24.5h-516v-297h461q32 0 46.5 -24t14.5 -78v-64q0 -54 -14.5 -78t-46.5 -24h-461v-332h518q32 0 46.5 -24t14.5 -78v-64q0 -54 -14.5 -78t-46.5 -24h-752 q-43 0 -62.5 19.5t-19.5 62.5zM297 1612v123q0 65 123 65t123 -65v-123q0 -66 -123 -66t-123 66zM666 1612v123q0 65 122 65q123 0 123 -65v-123q0 -66 -123 -66q-122 0 -122 66z" />
<glyph unicode="&#xcc;" horiz-adv-x="577" d="M14 1837q0 17 29 23t94 6q141 0 174 -56q25 -44 49.5 -86t38 -64t25 -42t16 -30t4.5 -17q0 -17 -13.5 -24t-49.5 -7q-107 0 -154 51q-61 66 -135 145q-55 59 -66.5 73.5t-11.5 27.5zM129 61v1311q0 68 123 68h72q122 0 122 -68v-1311q0 -67 -122 -67h-72q-123 0 -123 67z " />
<glyph unicode="&#xcd;" horiz-adv-x="577" d="M129 61v1311q0 68 123 68h72q122 0 122 -68v-1311q0 -67 -122 -67h-72q-123 0 -123 67zM145 1571q0 7 4.5 17t16 30t25.5 42.5t38.5 64t49.5 85.5q33 56 174 56q65 0 93.5 -6t28.5 -23q0 -13 -12.5 -28.5t-65.5 -72.5q-74 -79 -135 -145q-47 -51 -153 -51q-36 0 -50 7 t-14 24z" />
<glyph unicode="&#xce;" horiz-adv-x="577" d="M6 1554q0 13 12 31l134 209q16 25 43.5 32t80.5 7h23q53 0 81 -7t44 -32l133 -209q12 -18 12 -31q0 -20 -41 -20h-45q-105 0 -139 49l-57 82l-58 -80q-22 -30 -54.5 -40.5t-82.5 -10.5h-45q-41 0 -41 20zM129 61v1311q0 68 123 68h72q122 0 122 -68v-1311q0 -67 -122 -67 h-72q-123 0 -123 67z" />
<glyph unicode="&#xcf;" horiz-adv-x="577" d="M-18 1612v123q0 65 122 65q123 0 123 -65v-123q0 -66 -123 -66q-122 0 -122 66zM129 61v1311q0 68 123 68h72q122 0 122 -68v-1311q0 -67 -122 -67h-72q-123 0 -123 67zM350 1612v123q0 65 123 65t123 -65v-123q0 -66 -123 -66t-123 66z" />
<glyph unicode="&#xd0;" horiz-adv-x="1425" d="M25 698v62q0 54 14.5 78t46.5 24h59v490q0 43 19.5 62.5t62.5 19.5h459q317 0 486 -185t169 -532t-169 -532t-486 -185h-459q-43 0 -62.5 19.5t-19.5 62.5v514h-59q-32 0 -46.5 24t-14.5 78zM463 268h223q164 0 248 115t84 334t-84 333.5t-248 114.5h-223v-303h121 q32 0 46.5 -24t14.5 -78v-62q0 -54 -14.5 -78t-46.5 -24h-121v-328z" />
<glyph unicode="&#xd1;" horiz-adv-x="1472" d="M141 61v1311q0 66 123 66h88q49 0 81 -11.5t54 -44.5l484 -745l55 -84v819q0 66 123 66h59q123 0 123 -66v-1311q0 -65 -123 -65h-78q-50 0 -81.5 11t-53.5 44l-549 840v-830q0 -65 -122 -65h-60q-123 0 -123 65zM349 1592.5q-9 26.5 3 47.5q22 60 81 102t142 42 q37 0 147.5 -29t141.5 -31q37 0 68 33q22 27 42 33t40 -2l22 -6q34 -10 43.5 -36.5t-2.5 -47.5q-22 -60 -81 -102t-142 -42q-37 0 -147.5 29t-141.5 31q-39 0 -67 -33q-22 -27 -42 -33t-40 2l-23 6q-35 10 -44 36.5z" />
<glyph unicode="&#xd2;" horiz-adv-x="1497" d="M92 717q0 354 170.5 543.5t487.5 189.5t486 -189t169 -544t-169 -544t-486 -189t-487.5 189.5t-170.5 543.5zM416 717q0 -226 85 -345.5t249 -119.5q163 0 247 119t84 346t-83.5 345t-247.5 118t-249 -118.5t-85 -344.5zM475 1837q0 17 29 23t94 6q141 0 174 -56 q25 -44 49.5 -86t38 -64t25 -42t16 -30t4.5 -17q0 -17 -13.5 -24t-49.5 -7q-107 0 -154 51q-61 66 -135 145q-55 59 -66.5 73.5t-11.5 27.5z" />
<glyph unicode="&#xd3;" horiz-adv-x="1497" d="M92 717q0 354 170.5 543.5t487.5 189.5t486 -189t169 -544t-169 -544t-486 -189t-487.5 189.5t-170.5 543.5zM416 717q0 -226 85 -345.5t249 -119.5q163 0 247 119t84 346t-83.5 345t-247.5 118t-249 -118.5t-85 -344.5zM606 1571q0 7 4.5 17t16 30t25 42t38 64t49.5 86 q33 56 174 56q65 0 94 -6t29 -23q0 -13 -12.5 -28.5t-65.5 -72.5q-74 -79 -135 -145q-47 -51 -153 -51q-36 0 -50 7t-14 24z" />
<glyph unicode="&#xd4;" horiz-adv-x="1497" d="M92 717q0 354 170.5 543.5t487.5 189.5t486 -189t169 -544t-169 -544t-486 -189t-487.5 189.5t-170.5 543.5zM416 717q0 -226 85 -345.5t249 -119.5q163 0 247 119t84 346t-83.5 345t-247.5 118t-249 -118.5t-85 -344.5zM469 1554q0 13 12 31l133 209q16 25 44 32t81 7 h23q53 0 81 -7t44 -32l133 -209q12 -18 12 -31q0 -20 -41 -20h-45q-105 0 -139 49l-57 82l-58 -80q-22 -30 -54.5 -40.5t-82.5 -10.5h-45q-41 0 -41 20z" />
<glyph unicode="&#xd5;" horiz-adv-x="1497" d="M92 717q0 354 170.5 543.5t487.5 189.5t486 -189t169 -544t-169 -544t-486 -189t-487.5 189.5t-170.5 543.5zM362 1592.5q-9 26.5 3 47.5q22 60 81 102t142 42q37 0 147.5 -29t141.5 -31q36 0 67 33q22 27 42 33t40 -2l23 -6q34 -10 43.5 -36.5t-2.5 -47.5 q-22 -60 -81.5 -102t-142.5 -42q-37 0 -147 29t-141 31q-40 0 -68 -33q-22 -27 -42 -33t-40 2l-22 6q-35 10 -44 36.5zM416 717q0 -226 85 -345.5t249 -119.5q163 0 247 119t84 346t-83.5 345t-247.5 118t-249 -118.5t-85 -344.5z" />
<glyph unicode="&#xd6;" horiz-adv-x="1497" d="M92 717q0 354 170.5 543.5t487.5 189.5t486 -189t169 -544t-169 -544t-486 -189t-487.5 189.5t-170.5 543.5zM416 717q0 -226 85 -345.5t249 -119.5q163 0 247 119t84 346t-83.5 345t-247.5 118t-249 -118.5t-85 -344.5zM442 1612v123q0 65 123 65t123 -65v-123 q0 -66 -123 -66t-123 66zM811 1612v123q0 65 123 65t123 -65v-123q0 -66 -123 -66t-123 66z" />
<glyph unicode="&#xd7;" horiz-adv-x="1146" d="M84 158q0 19 18 37l301 301l-301 303q-18 15 -18 37q0 30 47 77l10 11q47 47 78 47q18 0 37 -19l301 -301l303 301q16 19 37 19q31 0 78 -47l10 -11q47 -47 47 -77q0 -22 -18 -37l-301 -303l301 -301q18 -18 18 -37q0 -31 -47 -78l-10 -10q-47 -47 -78 -47q-22 0 -37 18 l-303 301l-301 -301q-18 -18 -37 -18q-31 0 -78 47l-10 10q-47 47 -47 78z" />
<glyph unicode="&#xd8;" horiz-adv-x="1497" d="M39 70q0 21 20 41l136 153q-103 177 -103 453q0 354 170.5 543.5t487.5 189.5q241 0 397 -113l106 121q22 25 45 25q27 0 63 -33.5t36 -60.5q0 -20 -21 -41l-110 -125q139 -190 139 -506q0 -355 -169 -544t-486 -189q-284 0 -449 151l-119 -135q-22 -25 -45 -25 q-26 0 -62 33.5t-36 61.5zM416 717q0 -97 16 -185l516 582q-78 66 -198 66q-164 0 -249 -118.5t-85 -344.5zM506 365q84 -113 244 -113q163 0 247 119t84 346q0 148 -39 254z" />
<glyph unicode="&#xd9;" horiz-adv-x="1458" d="M135 479v893q0 66 123 66h70q123 0 123 -66v-872q0 -108 77.5 -178t200.5 -70q124 0 202.5 70t78.5 178v872q0 66 123 66h67q123 0 123 -66v-893q0 -236 -156 -365.5t-438 -129.5t-438 129.5t-156 365.5zM455 1837q0 17 29 23t94 6q141 0 174 -56q25 -44 49.5 -86t38 -64 t25 -42t16 -30t4.5 -17q0 -17 -14 -24t-50 -7q-106 0 -153 51q-61 66 -135 145q-55 59 -66.5 73.5t-11.5 27.5z" />
<glyph unicode="&#xda;" horiz-adv-x="1458" d="M135 479v893q0 66 123 66h70q123 0 123 -66v-872q0 -108 77.5 -178t200.5 -70q124 0 202.5 70t78.5 178v872q0 66 123 66h67q123 0 123 -66v-893q0 -236 -156 -365.5t-438 -129.5t-438 129.5t-156 365.5zM586 1571q0 7 4.5 17t16 30t25 42t38 64t49.5 86q33 56 174 56 q65 0 94 -6t29 -23q0 -13 -12.5 -28.5t-65.5 -72.5q-74 -79 -135 -145q-47 -51 -154 -51q-36 0 -49.5 7t-13.5 24z" />
<glyph unicode="&#xdb;" horiz-adv-x="1458" d="M135 479v893q0 66 123 66h70q123 0 123 -66v-872q0 -108 77.5 -178t200.5 -70q124 0 202.5 70t78.5 178v872q0 66 123 66h67q123 0 123 -66v-893q0 -236 -156 -365.5t-438 -129.5t-438 129.5t-156 365.5zM449 1554q0 13 12 31l133 209q16 25 44 32t81 7h22q53 0 81 -7 t44 -32l133 -209q13 -19 13 -31q0 -20 -41 -20h-45q-106 0 -140 49l-57 82l-57 -80q-22 -30 -54.5 -40.5t-82.5 -10.5h-46q-40 0 -40 20z" />
<glyph unicode="&#xdc;" horiz-adv-x="1458" d="M135 479v893q0 66 123 66h70q123 0 123 -66v-872q0 -108 77.5 -178t200.5 -70q124 0 202.5 70t78.5 178v872q0 66 123 66h67q123 0 123 -66v-893q0 -236 -156 -365.5t-438 -129.5t-438 129.5t-156 365.5zM422 1612v123q0 65 123 65t123 -65v-123q0 -66 -123 -66t-123 66z M791 1612v123q0 65 122 65q123 0 123 -65v-123q0 -66 -123 -66q-122 0 -122 66z" />
<glyph unicode="&#xdd;" horiz-adv-x="1144" d="M-12 1397q0 41 131 41h88q100 0 123 -39l250 -438l251 438q23 39 123 39h74q129 0 129 -41q0 -21 -18 -51l-408 -664v-621q0 -65 -123 -65h-69q-123 0 -123 65v627l-408 658q-20 33 -20 51zM430 1571q0 7 4.5 17t16 30t25 42t38 64t49.5 86q33 56 174 56q65 0 94 -6 t29 -23q0 -13 -12.5 -28.5t-65.5 -72.5q-74 -79 -135 -145q-47 -51 -153 -51q-36 0 -50 7t-14 24z" />
<glyph unicode="&#xde;" horiz-adv-x="1161" d="M139 61v1311q0 66 123 66h70q123 0 123 -66v-158h211q44 0 84.5 -4t91 -16t93 -31.5t84 -54.5t70 -80.5t46.5 -112.5t18 -149q0 -81 -20.5 -149t-52.5 -113t-76 -80t-87.5 -54.5t-90 -32t-79.5 -16.5t-61 -4h-231v-256q0 -65 -123 -65h-70q-123 0 -123 65zM455 588h196 q33 0 61.5 7.5t56 26t44 55.5t16.5 89t-16.5 89.5t-44 56t-56 26.5t-61.5 8h-196v-358z" />
<glyph unicode="&#xdf;" horiz-adv-x="1134" d="M119 61v943q0 202 131 324t338 122q198 0 325 -99t127 -266q0 -102 -48.5 -178t-141.5 -114v-9q126 -49 184 -135t58 -219q0 -188 -130.5 -309t-349.5 -121h-47q-32 0 -46.5 24t-14.5 78v35q0 54 14.5 78.5t46.5 24.5h29q86 0 138 52t52 138q0 94 -57.5 150.5 t-157.5 56.5h-4q-32 0 -46.5 24t-14.5 78v35q0 103 55 103h6q75 0 121.5 49t46.5 121q0 55 -37.5 101t-111.5 46t-118 -46.5t-44 -119.5v-967q0 -65 -123 -65h-57q-123 0 -123 65z" />
<glyph unicode="&#xe0;" horiz-adv-x="1116" d="M86 283q0 58 10.5 105t47 101t98 90t172 60.5t260.5 24.5v67q0 59 -38 88t-122 29q-66 0 -125.5 -16.5t-94.5 -33t-42 -16.5q-30 0 -68.5 64t-38.5 100q0 55 113.5 98t278.5 43q231 0 335.5 -91t104.5 -251v-385q0 -126 12 -211t12 -86q0 -32 -83 -48.5t-146 -16.5 q-16 0 -28.5 7t-19.5 16.5t-13 27t-9 29t-6.5 32.5t-5.5 29q-7 -14 -27.5 -36t-56.5 -51t-94 -48.5t-123 -19.5q-157 0 -230 81.5t-73 217.5zM285 1475q0 16 28.5 22t94.5 6q142 0 174 -55q25 -43 49.5 -85.5t38 -65t25 -42.5t16 -30t4.5 -17q0 -17 -13.5 -23.5t-50.5 -6.5 q-106 0 -153 51q-61 66 -135 145q-55 59 -66.5 73.5t-11.5 27.5zM387 313q0 -40 26.5 -65t75.5 -25q58 0 109 36.5t76 92.5v113q-287 0 -287 -152z" />
<glyph unicode="&#xe1;" horiz-adv-x="1116" d="M86 283q0 58 10.5 105t47 101t98 90t172 60.5t260.5 24.5v67q0 59 -38 88t-122 29q-66 0 -125.5 -16.5t-94.5 -33t-42 -16.5q-30 0 -68.5 64t-38.5 100q0 55 113.5 98t278.5 43q231 0 335.5 -91t104.5 -251v-385q0 -126 12 -211t12 -86q0 -32 -83 -48.5t-146 -16.5 q-16 0 -28.5 7t-19.5 16.5t-13 27t-9 29t-6.5 32.5t-5.5 29q-7 -14 -27.5 -36t-56.5 -51t-94 -48.5t-123 -19.5q-157 0 -230 81.5t-73 217.5zM387 313q0 -40 26.5 -65t75.5 -25q58 0 109 36.5t76 92.5v113q-287 0 -287 -152zM416 1208q0 7 4.5 17t16 30t25 42.5t38 65 t49.5 85.5q32 55 174 55q66 0 94.5 -6t28.5 -22q0 -13 -12.5 -28.5t-65.5 -72.5q-74 -79 -135 -145q-47 -51 -154 -51q-37 0 -50 6.5t-13 23.5z" />
<glyph unicode="&#xe2;" horiz-adv-x="1116" d="M86 283q0 58 10.5 105t47 101t98 90t172 60.5t260.5 24.5v67q0 59 -38 88t-122 29q-66 0 -125.5 -16.5t-94.5 -33t-42 -16.5q-30 0 -68.5 64t-38.5 100q0 55 113.5 98t278.5 43q231 0 335.5 -91t104.5 -251v-385q0 -126 12 -211t12 -86q0 -32 -83 -48.5t-146 -16.5 q-16 0 -28.5 7t-19.5 16.5t-13 27t-9 29t-6.5 32.5t-5.5 29q-7 -14 -27.5 -36t-56.5 -51t-94 -48.5t-123 -19.5q-157 0 -230 81.5t-73 217.5zM279 1192q0 13 12 31l133 209q16 25 43.5 31.5t81.5 6.5h22q54 0 81.5 -6.5t43.5 -31.5l133 -209q13 -19 13 -31q0 -21 -41 -21 h-45q-105 0 -140 50l-57 82l-57 -80q-37 -52 -137 -52h-46q-40 0 -40 21zM387 313q0 -40 26.5 -65t75.5 -25q58 0 109 36.5t76 92.5v113q-287 0 -287 -152z" />
<glyph unicode="&#xe3;" horiz-adv-x="1116" d="M86 283q0 58 10.5 105t47 101t98 90t172 60.5t260.5 24.5v67q0 59 -38 88t-122 29q-66 0 -125.5 -16.5t-94.5 -33t-42 -16.5q-30 0 -68.5 64t-38.5 100q0 55 113.5 98t278.5 43q231 0 335.5 -91t104.5 -251v-385q0 -126 12 -211t12 -86q0 -32 -83 -48.5t-146 -16.5 q-16 0 -28.5 7t-19.5 16.5t-13 27t-9 29t-6.5 32.5t-5.5 29q-7 -14 -27.5 -36t-56.5 -51t-94 -48.5t-123 -19.5q-157 0 -230 81.5t-73 217.5zM171 1230.5q-9 26.5 3 47.5q22 60 81 101.5t142 41.5q37 0 147.5 -28.5t141.5 -30.5q37 0 68 33q21 27 41.5 32.5t40.5 -2.5l22 -6 q34 -10 43.5 -36.5t-2.5 -47.5q-22 -60 -81 -101.5t-142 -41.5q-37 0 -147.5 28.5t-141.5 30.5q-40 0 -68 -32q-22 -27 -41.5 -33t-39.5 2l-23 6q-35 10 -44 36.5zM387 313q0 -40 26.5 -65t75.5 -25q58 0 109 36.5t76 92.5v113q-287 0 -287 -152z" />
<glyph unicode="&#xe4;" horiz-adv-x="1116" d="M86 283q0 58 10.5 105t47 101t98 90t172 60.5t260.5 24.5v67q0 59 -38 88t-122 29q-66 0 -125.5 -16.5t-94.5 -33t-42 -16.5q-30 0 -68.5 64t-38.5 100q0 55 113.5 98t278.5 43q231 0 335.5 -91t104.5 -251v-385q0 -126 12 -211t12 -86q0 -32 -83 -48.5t-146 -16.5 q-16 0 -28.5 7t-19.5 16.5t-13 27t-9 29t-6.5 32.5t-5.5 29q-7 -14 -27.5 -36t-56.5 -51t-94 -48.5t-123 -19.5q-157 0 -230 81.5t-73 217.5zM252 1249v123q0 66 123 66t123 -66v-123q0 -65 -123 -65t-123 65zM387 313q0 -40 26.5 -65t75.5 -25q58 0 109 36.5t76 92.5v113 q-287 0 -287 -152zM621 1249v123q0 66 122 66q123 0 123 -66v-123q0 -65 -123 -65q-122 0 -122 65z" />
<glyph unicode="&#xe5;" horiz-adv-x="1116" d="M86 283q0 58 10.5 105t47 101t98 90t172 60.5t260.5 24.5v67q0 59 -38 88t-122 29q-66 0 -125.5 -16.5t-94.5 -33t-42 -16.5q-30 0 -68.5 64t-38.5 100q0 55 113.5 98t278.5 43q231 0 335.5 -91t104.5 -251v-385q0 -126 12 -211t12 -86q0 -32 -83 -48.5t-146 -16.5 q-16 0 -28.5 7t-19.5 16.5t-13 27t-9 29t-6.5 32.5t-5.5 29q-7 -14 -27.5 -36t-56.5 -51t-94 -48.5t-123 -19.5q-157 0 -230 81.5t-73 217.5zM356 1329q0 86 58.5 145.5t144.5 59.5t145.5 -59.5t59.5 -145.5t-59.5 -144.5t-145.5 -58.5t-144.5 58.5t-58.5 144.5zM387 313 q0 -40 26.5 -65t75.5 -25q58 0 109 36.5t76 92.5v113q-287 0 -287 -152zM485 1327q0 -31 21.5 -52.5t52.5 -21.5t53.5 21.5t22.5 52.5t-22.5 53.5t-53.5 22.5t-52.5 -22.5t-21.5 -53.5z" />
<glyph unicode="&#xe6;" horiz-adv-x="1697" d="M84 283q0 39 5 73t20.5 74t41.5 71.5t70.5 62.5t104 51.5t146.5 33.5t194 13q9 72 30 131q-42 55 -184 55q-56 0 -113.5 -16.5t-97.5 -33t-51 -16.5q-30 0 -68.5 64t-38.5 100q0 55 113.5 98t278.5 43q220 0 329 -73q119 73 291 73q117 0 204 -38.5t138 -108.5 t75.5 -159.5t24.5 -200.5q0 -26 -39.5 -73.5t-60.5 -47.5h-522q0 -124 65.5 -180t165.5 -56q57 0 112 16t91 32t45 16q31 0 69 -60.5t38 -95.5q0 -36 -41 -65.5t-101 -46.5t-120 -26t-107 -9q-260 0 -399 139q-50 -50 -146.5 -94.5t-222.5 -44.5q-161 0 -250.5 84t-89.5 215 zM385 313q0 -40 26.5 -65t75.5 -25q57 0 113 25.5t84 70.5q-19 69 -25 142q-274 -3 -274 -148zM971 662h332q0 88 -40 137t-108 49q-155 0 -184 -186z" />
<glyph unicode="&#xe7;" horiz-adv-x="993" d="M86 528q0 279 127.5 419t398.5 140q77 0 152.5 -15t131.5 -48.5t56 -77.5q0 -31 -41.5 -94.5t-66.5 -63.5q-7 0 -37 15q-93 45 -178 45q-121 0 -176.5 -76t-55.5 -235q0 -161 52 -237.5t167 -76.5q99 0 201 47q35 13 37 13q31 0 69 -60.5t38 -95.5q0 -32 -30 -58.5 t-78.5 -42t-95 -25t-93.5 -13.5l-17 -62q65 -9 111.5 -46.5t46.5 -108.5q0 -205 -244 -205q-97 0 -182.5 28t-85.5 74q0 45 23.5 67.5t41.5 22.5q19 0 79 -21.5t108 -21.5q49 0 49 35q0 17 -17 30t-37.5 20t-37.5 19.5t-17 28.5q0 13 41 140q-224 19 -332 152.5t-108 387.5z " />
<glyph unicode="&#xe8;" horiz-adv-x="1103" d="M86 528q0 148 36 257t103.5 174.5t156.5 96.5t202 31q94 0 169.5 -28t125.5 -76t83.5 -115.5t48.5 -144t15 -164.5q0 -26 -41.5 -73.5t-62.5 -47.5h-523q10 -117 70 -166t166 -49q57 0 112 16t91 32t45 16q31 0 68.5 -60.5t37.5 -95.5q0 -36 -40.5 -65.5t-101 -46.5 t-120 -26t-106.5 -9q-270 0 -402.5 143.5t-132.5 400.5zM279 1475q0 16 28.5 22t93.5 6q142 0 174 -55q25 -44 49.5 -86t38.5 -64.5t25.5 -42t16 -30t4.5 -17.5q0 -17 -13.5 -23.5t-50.5 -6.5q-106 0 -153 51q-61 66 -135 145q-55 59 -66.5 73.5t-11.5 27.5zM399 641h332 q0 94 -37 150.5t-110 56.5q-152 0 -185 -207z" />
<glyph unicode="&#xe9;" horiz-adv-x="1103" d="M86 528q0 148 36 257t103.5 174.5t156.5 96.5t202 31q94 0 169.5 -28t125.5 -76t83.5 -115.5t48.5 -144t15 -164.5q0 -26 -41.5 -73.5t-62.5 -47.5h-523q10 -117 70 -166t166 -49q57 0 112 16t91 32t45 16q31 0 68.5 -60.5t37.5 -95.5q0 -36 -40.5 -65.5t-101 -46.5 t-120 -26t-106.5 -9q-270 0 -402.5 143.5t-132.5 400.5zM399 641h332q0 94 -37 150.5t-110 56.5q-152 0 -185 -207zM410 1208q0 7 4.5 17t16 30t25 42.5t38 65t49.5 85.5q32 55 174 55q66 0 94.5 -6t28.5 -22q0 -13 -12.5 -28.5t-65.5 -72.5q-74 -79 -135 -145 q-47 -51 -154 -51q-37 0 -50 6.5t-13 23.5z" />
<glyph unicode="&#xea;" horiz-adv-x="1103" d="M86 528q0 148 36 257t103.5 174.5t156.5 96.5t202 31q94 0 169.5 -28t125.5 -76t83.5 -115.5t48.5 -144t15 -164.5q0 -26 -41.5 -73.5t-62.5 -47.5h-523q10 -117 70 -166t166 -49q57 0 112 16t91 32t45 16q31 0 68.5 -60.5t37.5 -95.5q0 -36 -40.5 -65.5t-101 -46.5 t-120 -26t-106.5 -9q-270 0 -402.5 143.5t-132.5 400.5zM272 1192q0 12 13 31l133 209q16 25 43.5 31.5t81.5 6.5h22q54 0 81.5 -6.5t43.5 -31.5l133 -209q13 -19 13 -31q0 -21 -41 -21h-45q-105 0 -140 50l-57 82l-57 -80q-37 -52 -138 -52h-45q-41 0 -41 21zM399 641h332 q0 94 -37 150.5t-110 56.5q-152 0 -185 -207z" />
<glyph unicode="&#xeb;" horiz-adv-x="1103" d="M86 528q0 148 36 257t103.5 174.5t156.5 96.5t202 31q94 0 169.5 -28t125.5 -76t83.5 -115.5t48.5 -144t15 -164.5q0 -26 -41.5 -73.5t-62.5 -47.5h-523q10 -117 70 -166t166 -49q57 0 112 16t91 32t45 16q31 0 68.5 -60.5t37.5 -95.5q0 -36 -40.5 -65.5t-101 -46.5 t-120 -26t-106.5 -9q-270 0 -402.5 143.5t-132.5 400.5zM246 1249v123q0 66 123 66t123 -66v-123q0 -65 -123 -65t-123 65zM399 641h332q0 94 -37 150.5t-110 56.5q-152 0 -185 -207zM614 1249v123q0 66 123 66t123 -66v-123q0 -65 -123 -65t-123 65z" />
<glyph unicode="&#xec;" horiz-adv-x="542" d="M-2 1475q0 16 28.5 22t94.5 6q142 0 174 -55q25 -43 49.5 -85.5t38 -65t25 -42.5t16 -30t4.5 -17q0 -17 -13 -23.5t-50 -6.5q-107 0 -154 51q-61 66 -135 145q-55 59 -66.5 73.5t-11.5 27.5zM121 61v949q0 65 123 65h57q123 0 123 -65v-949q0 -65 -123 -65h-57 q-123 0 -123 65z" />
<glyph unicode="&#xed;" horiz-adv-x="542" d="M121 61v949q0 65 123 65h57q123 0 123 -65v-949q0 -65 -123 -65h-57q-123 0 -123 65zM129 1208q0 7 4.5 17t16 30t25 42.5t38 65t49.5 85.5q32 55 174 55q66 0 94.5 -6t28.5 -22q0 -13 -12.5 -28.5t-65.5 -72.5q-74 -79 -135 -145q-47 -51 -153 -51q-37 0 -50.5 6.5 t-13.5 23.5z" />
<glyph unicode="&#xee;" horiz-adv-x="542" d="M-10 1192q0 13 12 31l133 209q16 25 43.5 31.5t81.5 6.5h23q54 0 81.5 -6.5t43.5 -31.5l133 -209q12 -18 12 -31q0 -21 -41 -21h-45q-104 0 -139 50l-58 82l-57 -80q-37 -52 -137 -52h-45q-41 0 -41 21zM121 61v949q0 65 123 65h57q123 0 123 -65v-949q0 -65 -123 -65 h-57q-123 0 -123 65z" />
<glyph unicode="&#xef;" horiz-adv-x="542" d="M-35 1249v123q0 66 123 66t123 -66v-123q0 -65 -123 -65t-123 65zM121 61v949q0 65 123 65h57q123 0 123 -65v-949q0 -65 -123 -65h-57q-123 0 -123 65zM334 1249v123q0 66 123 66t123 -66v-123q0 -65 -123 -65t-123 65z" />
<glyph unicode="&#xf0;" horiz-adv-x="1165" d="M86 537q0 268 127 409t371 141q38 0 104 -8q-26 60 -65 127q-113 -16 -125 -16q-31 0 -55.5 27t-24.5 59q0 27 43 33l88 12q-8 11 -30.5 37t-35 43t-12.5 24q0 19 39 25q21 2 63 7t64 7q42 0 78 -22q28 -20 82 -88l139 18q26 0 51 -27.5t25 -58.5q0 -27 -43 -33l-95 -12 q85 -132 145 -321.5t60 -382.5q0 -269 -126 -411t-369 -142q-244 0 -371 142.5t-127 410.5zM393 537q0 -314 191 -314q188 0 188 314q0 156 -45.5 233.5t-142.5 77.5q-191 0 -191 -311z" />
<glyph unicode="&#xf1;" horiz-adv-x="1140" d="M102 999q0 32 84 49t146 17q16 0 28.5 -7t19.5 -16t13 -25t9 -27.5t6.5 -30.5t5.5 -27q49 65 130.5 110t174.5 45q154 0 227.5 -80.5t73.5 -250.5v-695q0 -65 -123 -65h-57q-123 0 -123 65v650q0 63 -29 95t-94 32q-56 0 -97.5 -36.5t-66.5 -82.5v-658q0 -65 -123 -65 h-57q-123 0 -123 65v650q0 90 -6.5 152.5t-12.5 92.5t-6 43zM183 1230.5q-9 26.5 3 47.5q22 60 81.5 101.5t142.5 41.5q37 0 147 -28.5t141 -30.5q37 0 68 33q21 27 41.5 32.5t40.5 -2.5l22 -6q34 -10 43.5 -36.5t-2.5 -47.5q-22 -60 -81 -101.5t-142 -41.5 q-37 0 -147.5 28.5t-141.5 30.5q-39 0 -67 -32q-22 -27 -42 -33t-40 2l-23 6q-35 10 -44 36.5z" />
<glyph unicode="&#xf2;" horiz-adv-x="1165" d="M86 537q0 268 127 409t371 141q243 0 369 -141t126 -409q0 -269 -126 -411t-369 -142q-244 0 -371 142.5t-127 410.5zM309 1475q0 16 28.5 22t94.5 6q142 0 174 -55q25 -43 49.5 -85.5t38 -65t25 -42.5t16 -30t4.5 -17q0 -17 -13 -23.5t-50 -6.5q-107 0 -154 51 q-61 66 -135 145q-55 59 -66.5 73.5t-11.5 27.5zM393 537q0 -314 191 -314q188 0 188 314q0 156 -45.5 233.5t-142.5 77.5q-191 0 -191 -311z" />
<glyph unicode="&#xf3;" horiz-adv-x="1165" d="M86 537q0 268 127 409t371 141q243 0 369 -141t126 -409q0 -269 -126 -411t-369 -142q-244 0 -371 142.5t-127 410.5zM393 537q0 -314 191 -314q188 0 188 314q0 156 -45.5 233.5t-142.5 77.5q-191 0 -191 -311zM440 1208q0 7 4.5 17t16 30t25 42.5t38 65t49.5 85.5 q32 55 175 55q65 0 93.5 -6t28.5 -22q0 -13 -12.5 -28.5t-65.5 -72.5q-74 -79 -135 -145q-47 -51 -153 -51q-37 0 -50.5 6.5t-13.5 23.5z" />
<glyph unicode="&#xf4;" horiz-adv-x="1165" d="M86 537q0 268 127 409t371 141q243 0 369 -141t126 -409q0 -269 -126 -411t-369 -142q-244 0 -371 142.5t-127 410.5zM303 1192q0 13 12 31l134 209q16 25 43 31.5t81 6.5h23q54 0 81.5 -6.5t43.5 -31.5l133 -209q12 -18 12 -31q0 -21 -41 -21h-45q-104 0 -139 50l-57 82 l-58 -80q-37 -52 -137 -52h-45q-41 0 -41 21zM393 537q0 -314 191 -314q188 0 188 314q0 156 -45.5 233.5t-142.5 77.5q-191 0 -191 -311z" />
<glyph unicode="&#xf5;" horiz-adv-x="1165" d="M86 537q0 268 127 409t371 141q243 0 369 -141t126 -409q0 -269 -126 -411t-369 -142q-244 0 -371 142.5t-127 410.5zM196 1230.5q-9 26.5 3 47.5q22 60 81 101.5t142 41.5q37 0 147.5 -28.5t141.5 -30.5q36 0 67 33q21 27 41.5 32.5t40.5 -2.5l23 -6q34 -10 43.5 -36.5 t-2.5 -47.5q-22 -60 -81.5 -101.5t-142.5 -41.5q-37 0 -147 28.5t-141 30.5q-40 0 -68 -32q-22 -27 -42 -33t-40 2l-22 6q-35 10 -44 36.5zM393 537q0 -314 191 -314q188 0 188 314q0 156 -45.5 233.5t-142.5 77.5q-191 0 -191 -311z" />
<glyph unicode="&#xf6;" horiz-adv-x="1165" d="M86 537q0 268 127 409t371 141q243 0 369 -141t126 -409q0 -269 -126 -411t-369 -142q-244 0 -371 142.5t-127 410.5zM276 1249v123q0 66 123 66t123 -66v-123q0 -65 -123 -65t-123 65zM393 537q0 -314 191 -314q188 0 188 314q0 156 -45.5 233.5t-142.5 77.5 q-191 0 -191 -311zM645 1249v123q0 66 123 66t123 -66v-123q0 -65 -123 -65t-123 65z" />
<glyph unicode="&#xf7;" horiz-adv-x="1146" d="M57 455v14q0 54 15 78t47 24h909q32 0 47 -24t15 -78v-14q0 -54 -15 -78.5t-47 -24.5h-909q-32 0 -47 24.5t-15 78.5zM438 61v146q0 65 123 65h23q123 0 123 -65v-146q0 -65 -123 -65h-23q-123 0 -123 65zM438 717v145q0 66 123 66h23q123 0 123 -66v-145q0 -66 -123 -66 h-23q-123 0 -123 66z" />
<glyph unicode="&#xf8;" horiz-adv-x="1165" d="M80 66q0 20 20 43l68 77q-82 134 -82 351q0 268 127 409t371 141q177 0 293 -75l65 75q24 27 45 27q26 0 62 -32t36 -58q0 -20 -20 -43l-74 -86q88 -139 88 -358q0 -269 -126 -411t-369 -142q-186 0 -305 84l-58 -66q-21 -27 -43 -27q-26 0 -62 31.5t-36 59.5zM393 537 q0 -30 4 -84l301 352q-43 43 -114 43q-191 0 -191 -311zM459 276q47 -53 125 -53q188 0 188 314q0 51 -6 98z" />
<glyph unicode="&#xf9;" horiz-adv-x="1140" d="M121 315v695q0 65 123 65h57q123 0 123 -65v-650q0 -63 29 -95t94 -32q56 0 97.5 36.5t66.5 82.5v658q0 65 123 65h57q123 0 123 -65v-650q0 -126 12 -211t12 -86q0 -32 -83 -48.5t-146 -16.5q-16 0 -28.5 7t-19.5 16.5t-13 27t-9 29t-6.5 32.5t-5.5 29 q-49 -65 -130.5 -110t-174.5 -45q-154 0 -227.5 80.5t-73.5 250.5zM297 1475q0 16 28.5 22t94.5 6q142 0 174 -55q25 -43 49.5 -85.5t38 -65t25 -42.5t16 -30t4.5 -17q0 -17 -13 -23.5t-50 -6.5q-107 0 -154 51q-61 66 -135 145q-55 59 -66.5 73.5t-11.5 27.5z" />
<glyph unicode="&#xfa;" horiz-adv-x="1140" d="M121 315v695q0 65 123 65h57q123 0 123 -65v-650q0 -63 29 -95t94 -32q56 0 97.5 36.5t66.5 82.5v658q0 65 123 65h57q123 0 123 -65v-650q0 -126 12 -211t12 -86q0 -32 -83 -48.5t-146 -16.5q-16 0 -28.5 7t-19.5 16.5t-13 27t-9 29t-6.5 32.5t-5.5 29 q-49 -65 -130.5 -110t-174.5 -45q-154 0 -227.5 80.5t-73.5 250.5zM428 1208q0 7 4.5 17t16 30t25 42.5t38 65t49.5 85.5q32 55 174 55q66 0 94.5 -6t28.5 -22q0 -13 -12.5 -28.5t-65.5 -72.5q-74 -79 -135 -145q-47 -51 -153 -51q-37 0 -50.5 6.5t-13.5 23.5z" />
<glyph unicode="&#xfb;" horiz-adv-x="1140" d="M121 315v695q0 65 123 65h57q123 0 123 -65v-650q0 -63 29 -95t94 -32q56 0 97.5 36.5t66.5 82.5v658q0 65 123 65h57q123 0 123 -65v-650q0 -126 12 -211t12 -86q0 -32 -83 -48.5t-146 -16.5q-16 0 -28.5 7t-19.5 16.5t-13 27t-9 29t-6.5 32.5t-5.5 29 q-49 -65 -130.5 -110t-174.5 -45q-154 0 -227.5 80.5t-73.5 250.5zM291 1192q0 13 12 31l133 209q16 25 43.5 31.5t81.5 6.5h23q54 0 81.5 -6.5t43.5 -31.5l133 -209q12 -18 12 -31q0 -21 -41 -21h-45q-104 0 -139 50l-58 82l-57 -80q-37 -52 -137 -52h-45q-41 0 -41 21z " />
<glyph unicode="&#xfc;" horiz-adv-x="1140" d="M121 315v695q0 65 123 65h57q123 0 123 -65v-650q0 -63 29 -95t94 -32q56 0 97.5 36.5t66.5 82.5v658q0 65 123 65h57q123 0 123 -65v-650q0 -126 12 -211t12 -86q0 -32 -83 -48.5t-146 -16.5q-16 0 -28.5 7t-19.5 16.5t-13 27t-9 29t-6.5 32.5t-5.5 29 q-49 -65 -130.5 -110t-174.5 -45q-154 0 -227.5 80.5t-73.5 250.5zM264 1249v123q0 66 123 66t123 -66v-123q0 -65 -123 -65t-123 65zM633 1249v123q0 66 123 66t123 -66v-123q0 -65 -123 -65t-123 65z" />
<glyph unicode="&#xfd;" horiz-adv-x="985" d="M20 1030q0 45 125 45h66q102 0 115 -43l120 -379q24 -80 58 -247h8q38 186 57 247l121 379q13 43 115 43h49q123 0 123 -45q0 -16 -6 -37l-469 -1372q-16 -43 -115 -43h-35q-123 0 -123 43q0 16 9 37l129 342l-338 993q-9 31 -9 37zM350 1208q0 7 4.5 17t16 30t25 42.5 t38 65t49.5 85.5q32 55 174 55q66 0 94.5 -6t28.5 -22q0 -13 -12.5 -28.5t-65.5 -72.5q-74 -79 -135 -145q-47 -51 -153 -51q-37 0 -50.5 6.5t-13.5 23.5z" />
<glyph unicode="&#xfe;" horiz-adv-x="1167" d="M133 -356v1835q0 65 123 65h57q123 0 123 -65v-516q39 57 107 90.5t151 33.5q171 0 277 -146t106 -406q0 -254 -114 -402.5t-318 -148.5q-122 0 -209 63v-403q0 -66 -123 -66h-57q-123 0 -123 66zM436 262q71 -39 144 -39q190 0 190 312q0 305 -166 305q-97 0 -168 -121 v-457z" />
<glyph unicode="&#xff;" horiz-adv-x="985" d="M20 1030q0 45 125 45h66q102 0 115 -43l120 -379q24 -80 58 -247h8q38 186 57 247l121 379q13 43 115 43h49q123 0 123 -45q0 -16 -6 -37l-469 -1372q-16 -43 -115 -43h-35q-123 0 -123 43q0 16 9 37l129 342l-338 993q-9 31 -9 37zM186 1249v123q0 66 123 66t123 -66 v-123q0 -65 -123 -65t-123 65zM555 1249v123q0 66 123 66t123 -66v-123q0 -65 -123 -65t-123 65z" />
<glyph unicode="&#x152;" horiz-adv-x="2091" d="M92 717q0 355 164.5 544t472.5 189q207 0 356 -94q0 78 82 78h750q32 0 46.5 -24.5t14.5 -78.5v-63q0 -54 -14.5 -78.5t-46.5 -24.5h-516v-297h461q32 0 46.5 -24t14.5 -78v-64q0 -54 -14.5 -78t-46.5 -24h-461v-332h518q32 0 46.5 -24t14.5 -78v-64q0 -54 -14.5 -78 t-46.5 -24h-752q-41 0 -61 18t-21 58q-151 -92 -356 -92q-308 0 -472.5 189t-164.5 544zM416 717q0 -226 85 -345.5t249 -119.5q163 0 247 119t84 346t-83.5 345t-247.5 118t-249 -118.5t-85 -344.5z" />
<glyph unicode="&#x153;" horiz-adv-x="1783" d="M84 537q0 268 127 409t371 141q205 0 338 -120q123 120 350 120q94 0 169.5 -28t125.5 -76t83.5 -115.5t48.5 -144t15 -164.5q0 -26 -41.5 -73.5t-62.5 -47.5h-523q10 -117 70 -166t166 -49q57 0 112 16t91 32t45 16q31 0 68.5 -60.5t37.5 -95.5q0 -36 -40.5 -65.5 t-101 -46.5t-120 -26t-106.5 -9q-243 0 -381 122q-135 -122 -344 -122q-244 0 -371 142.5t-127 410.5zM391 537q0 -314 191 -314q188 0 188 314q0 156 -45.5 233.5t-142.5 77.5q-191 0 -191 -311zM1085 641h332q0 94 -37 150.5t-110 56.5q-152 0 -185 -207z" />
<glyph unicode="&#x178;" horiz-adv-x="1144" d="M-12 1397q0 41 131 41h88q100 0 123 -39l250 -438l251 438q23 39 123 39h74q129 0 129 -41q0 -21 -18 -51l-408 -664v-621q0 -65 -123 -65h-69q-123 0 -123 65v627l-408 658q-20 33 -20 51zM266 1612v123q0 65 123 65t123 -65v-123q0 -66 -123 -66t-123 66zM635 1612v123 q0 65 123 65t123 -65v-123q0 -66 -123 -66t-123 66z" />
<glyph unicode="&#x2c6;" d="M39 1192q0 13 12 31l133 209q16 25 43.5 31.5t81.5 6.5h23q54 0 81.5 -6.5t43.5 -31.5l133 -209q12 -18 12 -31q0 -21 -41 -21h-45q-104 0 -139 50l-58 82l-57 -80q-37 -52 -137 -52h-45q-41 0 -41 21z" />
<glyph unicode="&#x2dc;" horiz-adv-x="747" d="M-13 1230.5q-9 26.5 3 47.5q22 60 81 101.5t142 41.5q37 0 147.5 -28.5t141.5 -30.5q36 0 67 33q21 27 41.5 32.5t40.5 -2.5l23 -6q34 -10 43.5 -36.5t-2.5 -47.5q-22 -60 -81 -101.5t-142 -41.5q-37 0 -147.5 28.5t-141.5 30.5q-40 0 -68 -32q-22 -27 -42 -33t-40 2 l-22 6q-35 10 -44 36.5z" />
<glyph unicode="&#x2000;" horiz-adv-x="948" />
<glyph unicode="&#x2001;" horiz-adv-x="1896" />
<glyph unicode="&#x2002;" horiz-adv-x="948" />
<glyph unicode="&#x2003;" horiz-adv-x="1896" />
<glyph unicode="&#x2004;" horiz-adv-x="632" />
<glyph unicode="&#x2005;" horiz-adv-x="474" />
<glyph unicode="&#x2006;" horiz-adv-x="316" />
<glyph unicode="&#x2007;" horiz-adv-x="316" />
<glyph unicode="&#x2008;" horiz-adv-x="237" />
<glyph unicode="&#x2009;" horiz-adv-x="379" />
<glyph unicode="&#x200a;" horiz-adv-x="105" />
<glyph unicode="&#x2010;" d="M57 537v14q0 54 15 78t47 24h418q32 0 46.5 -24t14.5 -78v-14q0 -54 -14.5 -78.5t-46.5 -24.5h-418q-32 0 -47 24.5t-15 78.5z" />
<glyph unicode="&#x2011;" d="M57 537v14q0 54 15 78t47 24h418q32 0 46.5 -24t14.5 -78v-14q0 -54 -14.5 -78.5t-46.5 -24.5h-418q-32 0 -47 24.5t-15 78.5z" />
<glyph unicode="&#x2012;" d="M57 537v14q0 54 15 78t47 24h418q32 0 46.5 -24t14.5 -78v-14q0 -54 -14.5 -78.5t-46.5 -24.5h-418q-32 0 -47 24.5t-15 78.5z" />
<glyph unicode="&#x2013;" horiz-adv-x="1024" d="M0 537v14q0 54 14.5 78t46.5 24h902q32 0 46.5 -24t14.5 -78v-14q0 -54 -14.5 -78.5t-46.5 -24.5h-902q-32 0 -46.5 24.5t-14.5 78.5z" />
<glyph unicode="&#x2014;" horiz-adv-x="2048" d="M0 537v14q0 54 14.5 78t46.5 24h1926q32 0 46.5 -24t14.5 -78v-14q0 -54 -14.5 -78.5t-46.5 -24.5h-1926q-32 0 -46.5 24.5t-14.5 78.5z" />
<glyph unicode="&#x2018;" horiz-adv-x="434" d="M23 1069q0 81 31.5 171t76 156.5t92.5 110t82 43.5t63 -11.5t29 -33.5q0 -23 -12 -53q-2 -4 -14 -35t-17.5 -46.5t-16.5 -53t-16 -69.5t-9.5 -80t-4.5 -99q0 -90 -123 -90h-39q-62 0 -92 24.5t-30 65.5z" />
<glyph unicode="&#x2019;" horiz-adv-x="434" d="M39 1024q0 15 14 59q1 2 8.5 20.5t10 24t10 26t10.5 31t9 33t9 39t7.5 42t6.5 49t3.5 52.5t1.5 60q0 90 123 90h39q62 0 92.5 -24.5t30.5 -65.5q0 -81 -31.5 -171t-76 -156.5t-93 -110t-82.5 -43.5t-63 11.5t-29 33.5z" />
<glyph unicode="&#x201a;" horiz-adv-x="405" d="M25 -211q0 19 18 68q22 53 32.5 83t25 111.5t14.5 173.5q0 90 123 90h38q62 0 92.5 -24.5t30.5 -65.5q0 -81 -31.5 -171t-76 -156.5t-92.5 -110t-82 -43.5t-63 11.5t-29 33.5z" />
<glyph unicode="&#x201c;" horiz-adv-x="716" d="M-18 1069q0 81 31.5 171t76 156.5t92.5 110t82 43.5t63 -11.5t29 -33.5q0 -23 -12 -53q-2 -4 -14 -35t-17.5 -46.5t-16.5 -53t-16 -69.5t-9.5 -80t-4.5 -99q0 -90 -123 -90h-39q-62 0 -92 24.5t-30 65.5zM344 1069q0 81 31.5 171t76 156.5t93 110t82.5 43.5t63 -11.5 t29 -33.5q0 -23 -12 -53q-2 -4 -14 -35t-17.5 -46.5t-16.5 -53t-16 -69.5t-9.5 -80t-4.5 -99q0 -90 -123 -90h-39q-62 0 -92.5 24.5t-30.5 65.5z" />
<glyph unicode="&#x201d;" horiz-adv-x="716" d="M0 1024q0 15 14 59q1 2 8.5 20.5t10 24t10 26t10.5 31t9 33t9 39t7.5 42t6.5 49t3.5 52.5t1.5 60q0 90 123 90h39q62 0 92.5 -24.5t30.5 -65.5q0 -81 -31.5 -171t-76 -156.5t-93 -110t-82.5 -43.5t-63 11.5t-29 33.5zM365 1024q0 15 14 59q1 2 8.5 20.5t10 24t10 26 t10.5 31t9 33t9 39t7.5 42t6.5 49t3.5 52.5t1.5 60q0 90 123 90h38q62 0 92.5 -24.5t30.5 -65.5q0 -81 -31.5 -171t-76 -156.5t-92.5 -110t-82 -43.5t-63 11.5t-29 33.5z" />
<glyph unicode="&#x201e;" horiz-adv-x="688" d="M-14 -211q0 19 18 68q22 53 32.5 83t25 111.5t14.5 173.5q0 90 123 90h39q62 0 92 -24.5t30 -65.5q0 -81 -31.5 -171t-76 -156.5t-92.5 -110t-82 -43.5t-63 11.5t-29 33.5zM348 -211q0 17 19 68q21 52 32 83t25 112t14 173q0 90 123 90h39q62 0 92.5 -24.5t30.5 -65.5 q0 -81 -31.5 -171t-76 -156.5t-93 -110t-82.5 -43.5t-63 11.5t-29 33.5z" />
<glyph unicode="&#x2022;" horiz-adv-x="688" d="M74 668q0 113 79 192.5t191 79.5t192 -80t80 -192t-79.5 -191.5t-192.5 -79.5q-112 0 -191 79t-79 192z" />
<glyph unicode="&#x2026;" horiz-adv-x="1263" d="M49 61v189q0 65 123 65h66q122 0 122 -65v-189q0 -65 -122 -65h-66q-123 0 -123 65zM479 61v189q0 65 123 65h66q123 0 123 -65v-189q0 -65 -123 -65h-66q-123 0 -123 65zM909 61v189q0 65 123 65h66q123 0 123 -65v-189q0 -65 -123 -65h-66q-123 0 -123 65z" />
<glyph unicode="&#x202f;" horiz-adv-x="379" />
<glyph unicode="&#x2039;" horiz-adv-x="614" d="M55 528q0 52 33 90l260 314q26 29 55 29q32 0 76.5 -34t44.5 -67q0 -21 -18 -45l-225 -287l225 -286q18 -24 18 -47q0 -30 -43.5 -65.5t-77.5 -35.5q-27 0 -55 31l-260 313q-33 38 -33 90z" />
<glyph unicode="&#x203a;" horiz-adv-x="614" d="M82 195q0 23 18 47l226 286l-226 287q-18 24 -18 45q0 33 44.5 67t76.5 34q29 0 55 -29l260 -314q33 -38 33 -90t-33 -90l-260 -313q-28 -31 -55 -31q-34 0 -77.5 35.5t-43.5 65.5z" />
<glyph unicode="&#x205f;" horiz-adv-x="474" />
<glyph unicode="&#x20ac;" horiz-adv-x="1228" d="M0 547v14q0 37 14.5 53.5t46.5 16.5h60q-2 29 -2 90q0 42 2 65h-60q-32 0 -46.5 16.5t-14.5 53.5v14q0 37 14.5 53.5t46.5 16.5h74q88 510 621 510q135 0 261 -41.5t126 -101.5q0 -45 -48 -119t-85 -74q-4 0 -35 16.5t-91 33t-134 16.5q-228 0 -289 -240h491 q32 0 47 -16.5t15 -53.5v-14q0 -37 -15 -53.5t-47 -16.5h-512q-2 -23 -2 -67q0 -61 2 -88h512q32 0 47 -16.5t15 -53.5v-14q0 -37 -15 -53.5t-47 -16.5h-485q65 -225 278 -225q75 0 142 20.5t106.5 41t46.5 20.5q31 0 60.5 -38t45 -79t15.5 -61q0 -43 -43.5 -78t-110 -54.5 t-134.5 -29.5t-128 -10q-263 0 -413.5 120.5t-194.5 372.5h-76q-32 0 -46.5 16.5t-14.5 53.5z" />
<glyph unicode="&#x2122;" horiz-adv-x="1581" d="M47 1339v37q0 58 35 58h545q35 0 35 -58v-37q0 -57 -35 -57h-183v-620q0 -37 -69 -37h-41q-70 0 -70 37v620h-182q-35 0 -35 57zM709 662v737q0 37 69 37h62q55 0 71 -31l166 -293l37 -68l35 64l170 297q19 31 74 31h59q70 0 70 -37v-737q0 -37 -70 -37h-33q-69 0 -69 37 v477l-7 6l-165 -303q-12 -23 -45 -23h-35q-34 0 -45 23l-168 303l-4 -6v-477q0 -37 -70 -37h-33q-69 0 -69 37z" />
<glyph unicode="&#x25fc;" horiz-adv-x="1075" d="M0 0v1075h1075v-1075h-1075z" />
</font>
</defs>
</svg>
